M48
;DRILL file {KiCad 5.0.0-rc1-44a33f2~62~ubuntu16.04.1} date Thu Apr  5 21:07:06 2018
;FORMAT={-:-/ absolute / inch / decimal}
FMAT,2
INCH,TZ
T1C0.0157
T2C0.0394
T3C0.0787
%
G90
G05
M72
T1
X5.1643Y-3.2647
X5.1713Y-3.4547
X5.1949Y-3.7756
X5.2181Y-3.3622
X5.2185Y-3.9331
X5.2228Y-3.6529
X5.2795Y-3.3602
X5.311Y-3.1978
X5.313Y-3.5925
X5.3169Y-3.5394
X5.3425Y-3.3602
X5.3602Y-3.9567
X5.3701Y-3.189
X5.374Y-3.8366
X5.3957Y-3.3622
X5.4098Y-3.8959
X5.4488Y-3.563
X5.4685Y-3.3583
X5.4843Y-3.9272
X5.4882Y-3.2362
X5.5039Y-3.872
X5.5142Y-3.3583
X5.5386Y-4.003
X5.5413Y-3.935
X5.5709Y-3.7972
X5.6083Y-3.7185
X5.6122Y-3.561
X5.6122Y-3.806
X5.6437Y-3.935
X5.6614Y-3.3543
X5.6693Y-3.876
X5.6732Y-3.7402
X5.6811Y-3.7972
T2
X5.0899Y-3.1794
X5.0899Y-3.2794
X5.0899Y-3.3794
X5.0899Y-3.4794
X5.0899Y-3.5794
X5.0899Y-3.6794
X5.0899Y-3.7794
X5.0899Y-3.8794
X5.0899Y-3.9794
T3
X5.9075Y-3.9508
X5.9075Y-3.2224
T0
M30
