G04 #@! TF.GenerationSoftware,KiCad,Pcbnew,5.0.0-rc1-44a33f2~62~ubuntu16.04.1*
G04 #@! TF.CreationDate,2018-04-05T21:06:55+03:00*
G04 #@! TF.ProjectId,accel-breakout,616363656C2D627265616B6F75742E6B,rev?*
G04 #@! TF.SameCoordinates,Original*
G04 #@! TF.FileFunction,Copper,L2,Bot,Signal*
G04 #@! TF.FilePolarity,Positive*
%FSLAX46Y46*%
G04 Gerber Fmt 4.6, Leading zero omitted, Abs format (unit mm)*
G04 Created by KiCad (PCBNEW 5.0.0-rc1-44a33f2~62~ubuntu16.04.1) date Thu Apr  5 21:06:55 2018*
%MOMM*%
%LPD*%
G01*
G04 APERTURE LIST*
%ADD10R,1.700000X1.700000*%
%ADD11O,1.700000X1.700000*%
%ADD12C,3.000000*%
%ADD13C,0.800000*%
%ADD14C,0.250000*%
%ADD15C,0.254000*%
G04 APERTURE END LIST*
D10*
X129282619Y-80757500D03*
D11*
X129282619Y-83297500D03*
X129282619Y-85837500D03*
X129282619Y-88377500D03*
X129282619Y-90917500D03*
X129282619Y-93457500D03*
X129282619Y-95997500D03*
X129282619Y-98537500D03*
X129282619Y-101077500D03*
D12*
X150050000Y-100350000D03*
X150050000Y-81850000D03*
D13*
X135700000Y-85350000D03*
X134100000Y-85350000D03*
X136500000Y-97450000D03*
X136150000Y-100500000D03*
X144000000Y-98450000D03*
X144300000Y-96450000D03*
X132550000Y-99900000D03*
X143350000Y-99950000D03*
X131350000Y-87750000D03*
X132540912Y-85399991D03*
X132658104Y-92782785D03*
X142550000Y-90450000D03*
X138400000Y-90500000D03*
X138900000Y-85300000D03*
X137050000Y-85400000D03*
X136400000Y-81000000D03*
X135050000Y-89900000D03*
X139800000Y-98350000D03*
X141500000Y-96450000D03*
X131172407Y-82922407D03*
X143800000Y-85200000D03*
X144100000Y-95000000D03*
X142550000Y-96673002D03*
X139300000Y-99750000D03*
X134950000Y-91250000D03*
X137407817Y-98955000D03*
X134900000Y-81225000D03*
X140061439Y-85300898D03*
X140680706Y-101674990D03*
X139400000Y-82200000D03*
X131950000Y-95900000D03*
X142450000Y-94450000D03*
X140750000Y-99950000D03*
D14*
X134100000Y-85350000D02*
X135700000Y-85350000D01*
X136150000Y-100500000D02*
X136150000Y-97800000D01*
X136150000Y-97800000D02*
X136500000Y-97450000D01*
X135050000Y-89900000D02*
X141500000Y-96350000D01*
X141500000Y-96350000D02*
X141500000Y-96450000D01*
X139800000Y-98350000D02*
X140400152Y-97749848D01*
X140400152Y-97749848D02*
X140400152Y-97549848D01*
X140400152Y-97549848D02*
X141500000Y-96450000D01*
X131050000Y-82234315D02*
X131050000Y-81424881D01*
X131050000Y-81424881D02*
X130382619Y-80757500D01*
X130382619Y-80757500D02*
X129282619Y-80757500D01*
X131172407Y-82922407D02*
X131172407Y-82356722D01*
X131172407Y-82356722D02*
X131050000Y-82234315D01*
X144100000Y-85500000D02*
X143800000Y-85200000D01*
X144100000Y-95000000D02*
X144100000Y-85500000D01*
X139300000Y-99750000D02*
X139699999Y-99350001D01*
X139699999Y-99350001D02*
X139873001Y-99350001D01*
X139873001Y-99350001D02*
X142550000Y-96673002D01*
X137407817Y-93707817D02*
X134950000Y-91250000D01*
X137407817Y-97042183D02*
X137407817Y-93707817D01*
X137407817Y-98955000D02*
X137407817Y-97042183D01*
X129282619Y-85837500D02*
X133895119Y-81225000D01*
X133895119Y-81225000D02*
X134900000Y-81225000D01*
X131450000Y-88750000D02*
X133000000Y-88750000D01*
X139237336Y-86125001D02*
X140061439Y-85300898D01*
X130132618Y-90067382D02*
X131450000Y-88750000D01*
X135624999Y-86125001D02*
X139237336Y-86125001D01*
X130132618Y-90067501D02*
X130132618Y-90067382D01*
X133000000Y-88750000D02*
X135624999Y-86125001D01*
X129282619Y-90917500D02*
X130132618Y-90067501D01*
X131950000Y-95900000D02*
X131550001Y-96299999D01*
X131774989Y-102074989D02*
X140280707Y-102074989D01*
X131550001Y-101850001D02*
X131774989Y-102074989D01*
X131550001Y-96299999D02*
X131550001Y-101850001D01*
X140280707Y-102074989D02*
X140680706Y-101674990D01*
X141300000Y-83400000D02*
X140100000Y-82200000D01*
X140100000Y-82200000D02*
X139400000Y-82200000D01*
X141300000Y-85500000D02*
X141300000Y-83400000D01*
X140200000Y-86600000D02*
X141300000Y-85500000D01*
X136140119Y-86600000D02*
X140200000Y-86600000D01*
X129282619Y-93457500D02*
X136140119Y-86600000D01*
X143275001Y-95275001D02*
X142450000Y-94450000D01*
X141149999Y-99550001D02*
X143275001Y-97424999D01*
X143275001Y-97424999D02*
X143275001Y-95275001D01*
X140750000Y-99950000D02*
X141149999Y-99550001D01*
D15*
G36*
X152290000Y-102290000D02*
X150945450Y-102290000D01*
X151259380Y-102159966D01*
X151859966Y-101559380D01*
X152185000Y-100774678D01*
X152185000Y-99925322D01*
X151859966Y-99140620D01*
X151259380Y-98540034D01*
X150474678Y-98215000D01*
X149625322Y-98215000D01*
X148840620Y-98540034D01*
X148240034Y-99140620D01*
X147915000Y-99925322D01*
X147915000Y-100774678D01*
X148240034Y-101559380D01*
X148840620Y-102159966D01*
X149154550Y-102290000D01*
X141529407Y-102290000D01*
X141558137Y-102261270D01*
X141715706Y-101880864D01*
X141715706Y-101469116D01*
X141558137Y-101088710D01*
X141308404Y-100838977D01*
X141336280Y-100827431D01*
X141627431Y-100536280D01*
X141785000Y-100155874D01*
X141785000Y-99989801D01*
X143759474Y-98015328D01*
X143822930Y-97972928D01*
X143865925Y-97908581D01*
X143990905Y-97721537D01*
X144017047Y-97590112D01*
X144035001Y-97499851D01*
X144035001Y-97499847D01*
X144049889Y-97424999D01*
X144035001Y-97350151D01*
X144035001Y-96035000D01*
X144305874Y-96035000D01*
X144686280Y-95877431D01*
X144977431Y-95586280D01*
X145135000Y-95205874D01*
X145135000Y-94794126D01*
X144977431Y-94413720D01*
X144860000Y-94296289D01*
X144860000Y-85574846D01*
X144874888Y-85499999D01*
X144860000Y-85425152D01*
X144860000Y-85425148D01*
X144835000Y-85299465D01*
X144835000Y-84994126D01*
X144677431Y-84613720D01*
X144386280Y-84322569D01*
X144005874Y-84165000D01*
X143594126Y-84165000D01*
X143213720Y-84322569D01*
X142922569Y-84613720D01*
X142765000Y-84994126D01*
X142765000Y-85405874D01*
X142922569Y-85786280D01*
X143213720Y-86077431D01*
X143340001Y-86129738D01*
X143340000Y-93894065D01*
X143327431Y-93863720D01*
X143036280Y-93572569D01*
X142655874Y-93415000D01*
X142244126Y-93415000D01*
X141863720Y-93572569D01*
X141572569Y-93863720D01*
X141415000Y-94244126D01*
X141415000Y-94655874D01*
X141572569Y-95036280D01*
X141863720Y-95327431D01*
X142244126Y-95485000D01*
X142410198Y-95485000D01*
X142515002Y-95589804D01*
X142515002Y-95638002D01*
X142344126Y-95638002D01*
X142208069Y-95694358D01*
X142086280Y-95572569D01*
X141705874Y-95415000D01*
X141639803Y-95415000D01*
X136085000Y-89860199D01*
X136085000Y-89694126D01*
X135927431Y-89313720D01*
X135636280Y-89022569D01*
X135255874Y-88865000D01*
X134949921Y-88865000D01*
X136454921Y-87360000D01*
X140125153Y-87360000D01*
X140200000Y-87374888D01*
X140274847Y-87360000D01*
X140274852Y-87360000D01*
X140496537Y-87315904D01*
X140747929Y-87147929D01*
X140790331Y-87084470D01*
X141784473Y-86090329D01*
X141847929Y-86047929D01*
X142015904Y-85796537D01*
X142060000Y-85574852D01*
X142060000Y-85574847D01*
X142074888Y-85500000D01*
X142060000Y-85425153D01*
X142060000Y-83474846D01*
X142074888Y-83399999D01*
X142060000Y-83325152D01*
X142060000Y-83325148D01*
X142015904Y-83103463D01*
X141847929Y-82852071D01*
X141784473Y-82809671D01*
X140690331Y-81715530D01*
X140647929Y-81652071D01*
X140396537Y-81484096D01*
X140174852Y-81440000D01*
X140174847Y-81440000D01*
X140101056Y-81425322D01*
X147915000Y-81425322D01*
X147915000Y-82274678D01*
X148240034Y-83059380D01*
X148840620Y-83659966D01*
X149625322Y-83985000D01*
X150474678Y-83985000D01*
X151259380Y-83659966D01*
X151859966Y-83059380D01*
X152185000Y-82274678D01*
X152185000Y-81425322D01*
X151859966Y-80640620D01*
X151259380Y-80040034D01*
X150474678Y-79715000D01*
X149625322Y-79715000D01*
X148840620Y-80040034D01*
X148240034Y-80640620D01*
X147915000Y-81425322D01*
X140101056Y-81425322D01*
X140100000Y-81425112D01*
X140090677Y-81426966D01*
X139986280Y-81322569D01*
X139605874Y-81165000D01*
X139194126Y-81165000D01*
X138813720Y-81322569D01*
X138522569Y-81613720D01*
X138365000Y-81994126D01*
X138365000Y-82405874D01*
X138522569Y-82786280D01*
X138813720Y-83077431D01*
X139194126Y-83235000D01*
X139605874Y-83235000D01*
X139927130Y-83101932D01*
X140540001Y-83714803D01*
X140540001Y-84378849D01*
X140267313Y-84265898D01*
X139855565Y-84265898D01*
X139475159Y-84423467D01*
X139184008Y-84714618D01*
X139026439Y-85095024D01*
X139026439Y-85261097D01*
X138922535Y-85365001D01*
X136735000Y-85365001D01*
X136735000Y-85144126D01*
X136577431Y-84763720D01*
X136286280Y-84472569D01*
X135905874Y-84315000D01*
X135494126Y-84315000D01*
X135113720Y-84472569D01*
X134996289Y-84590000D01*
X134803711Y-84590000D01*
X134686280Y-84472569D01*
X134305874Y-84315000D01*
X133894126Y-84315000D01*
X133513720Y-84472569D01*
X133222569Y-84763720D01*
X133065000Y-85144126D01*
X133065000Y-85555874D01*
X133222569Y-85936280D01*
X133513720Y-86227431D01*
X133894126Y-86385000D01*
X134290198Y-86385000D01*
X132685199Y-87990000D01*
X131524846Y-87990000D01*
X131449999Y-87975112D01*
X131375152Y-87990000D01*
X131375148Y-87990000D01*
X131153463Y-88034096D01*
X131153461Y-88034097D01*
X131153462Y-88034097D01*
X130965526Y-88159671D01*
X130965524Y-88159673D01*
X130902071Y-88202071D01*
X130859673Y-88265524D01*
X130788579Y-88336618D01*
X130681458Y-87798082D01*
X130353244Y-87306875D01*
X130054858Y-87107500D01*
X130353244Y-86908125D01*
X130681458Y-86416918D01*
X130796711Y-85837500D01*
X130723828Y-85471092D01*
X134203105Y-81991816D01*
X134313720Y-82102431D01*
X134694126Y-82260000D01*
X135105874Y-82260000D01*
X135486280Y-82102431D01*
X135777431Y-81811280D01*
X135935000Y-81430874D01*
X135935000Y-81019126D01*
X135777431Y-80638720D01*
X135486280Y-80347569D01*
X135105874Y-80190000D01*
X134694126Y-80190000D01*
X134313720Y-80347569D01*
X134196289Y-80465000D01*
X133969965Y-80465000D01*
X133895118Y-80450112D01*
X133820271Y-80465000D01*
X133820267Y-80465000D01*
X133598582Y-80509096D01*
X133347190Y-80677071D01*
X133304790Y-80740527D01*
X131904375Y-82140943D01*
X131888311Y-82060185D01*
X131810000Y-81942984D01*
X131810000Y-81499727D01*
X131824888Y-81424880D01*
X131810000Y-81350033D01*
X131810000Y-81350029D01*
X131765904Y-81128344D01*
X131597929Y-80876952D01*
X131534473Y-80834552D01*
X130972950Y-80273030D01*
X130930548Y-80209571D01*
X130780059Y-80109017D01*
X130780059Y-79907500D01*
X130740774Y-79710000D01*
X152290001Y-79710000D01*
X152290000Y-102290000D01*
X152290000Y-102290000D01*
G37*
X152290000Y-102290000D02*
X150945450Y-102290000D01*
X151259380Y-102159966D01*
X151859966Y-101559380D01*
X152185000Y-100774678D01*
X152185000Y-99925322D01*
X151859966Y-99140620D01*
X151259380Y-98540034D01*
X150474678Y-98215000D01*
X149625322Y-98215000D01*
X148840620Y-98540034D01*
X148240034Y-99140620D01*
X147915000Y-99925322D01*
X147915000Y-100774678D01*
X148240034Y-101559380D01*
X148840620Y-102159966D01*
X149154550Y-102290000D01*
X141529407Y-102290000D01*
X141558137Y-102261270D01*
X141715706Y-101880864D01*
X141715706Y-101469116D01*
X141558137Y-101088710D01*
X141308404Y-100838977D01*
X141336280Y-100827431D01*
X141627431Y-100536280D01*
X141785000Y-100155874D01*
X141785000Y-99989801D01*
X143759474Y-98015328D01*
X143822930Y-97972928D01*
X143865925Y-97908581D01*
X143990905Y-97721537D01*
X144017047Y-97590112D01*
X144035001Y-97499851D01*
X144035001Y-97499847D01*
X144049889Y-97424999D01*
X144035001Y-97350151D01*
X144035001Y-96035000D01*
X144305874Y-96035000D01*
X144686280Y-95877431D01*
X144977431Y-95586280D01*
X145135000Y-95205874D01*
X145135000Y-94794126D01*
X144977431Y-94413720D01*
X144860000Y-94296289D01*
X144860000Y-85574846D01*
X144874888Y-85499999D01*
X144860000Y-85425152D01*
X144860000Y-85425148D01*
X144835000Y-85299465D01*
X144835000Y-84994126D01*
X144677431Y-84613720D01*
X144386280Y-84322569D01*
X144005874Y-84165000D01*
X143594126Y-84165000D01*
X143213720Y-84322569D01*
X142922569Y-84613720D01*
X142765000Y-84994126D01*
X142765000Y-85405874D01*
X142922569Y-85786280D01*
X143213720Y-86077431D01*
X143340001Y-86129738D01*
X143340000Y-93894065D01*
X143327431Y-93863720D01*
X143036280Y-93572569D01*
X142655874Y-93415000D01*
X142244126Y-93415000D01*
X141863720Y-93572569D01*
X141572569Y-93863720D01*
X141415000Y-94244126D01*
X141415000Y-94655874D01*
X141572569Y-95036280D01*
X141863720Y-95327431D01*
X142244126Y-95485000D01*
X142410198Y-95485000D01*
X142515002Y-95589804D01*
X142515002Y-95638002D01*
X142344126Y-95638002D01*
X142208069Y-95694358D01*
X142086280Y-95572569D01*
X141705874Y-95415000D01*
X141639803Y-95415000D01*
X136085000Y-89860199D01*
X136085000Y-89694126D01*
X135927431Y-89313720D01*
X135636280Y-89022569D01*
X135255874Y-88865000D01*
X134949921Y-88865000D01*
X136454921Y-87360000D01*
X140125153Y-87360000D01*
X140200000Y-87374888D01*
X140274847Y-87360000D01*
X140274852Y-87360000D01*
X140496537Y-87315904D01*
X140747929Y-87147929D01*
X140790331Y-87084470D01*
X141784473Y-86090329D01*
X141847929Y-86047929D01*
X142015904Y-85796537D01*
X142060000Y-85574852D01*
X142060000Y-85574847D01*
X142074888Y-85500000D01*
X142060000Y-85425153D01*
X142060000Y-83474846D01*
X142074888Y-83399999D01*
X142060000Y-83325152D01*
X142060000Y-83325148D01*
X142015904Y-83103463D01*
X141847929Y-82852071D01*
X141784473Y-82809671D01*
X140690331Y-81715530D01*
X140647929Y-81652071D01*
X140396537Y-81484096D01*
X140174852Y-81440000D01*
X140174847Y-81440000D01*
X140101056Y-81425322D01*
X147915000Y-81425322D01*
X147915000Y-82274678D01*
X148240034Y-83059380D01*
X148840620Y-83659966D01*
X149625322Y-83985000D01*
X150474678Y-83985000D01*
X151259380Y-83659966D01*
X151859966Y-83059380D01*
X152185000Y-82274678D01*
X152185000Y-81425322D01*
X151859966Y-80640620D01*
X151259380Y-80040034D01*
X150474678Y-79715000D01*
X149625322Y-79715000D01*
X148840620Y-80040034D01*
X148240034Y-80640620D01*
X147915000Y-81425322D01*
X140101056Y-81425322D01*
X140100000Y-81425112D01*
X140090677Y-81426966D01*
X139986280Y-81322569D01*
X139605874Y-81165000D01*
X139194126Y-81165000D01*
X138813720Y-81322569D01*
X138522569Y-81613720D01*
X138365000Y-81994126D01*
X138365000Y-82405874D01*
X138522569Y-82786280D01*
X138813720Y-83077431D01*
X139194126Y-83235000D01*
X139605874Y-83235000D01*
X139927130Y-83101932D01*
X140540001Y-83714803D01*
X140540001Y-84378849D01*
X140267313Y-84265898D01*
X139855565Y-84265898D01*
X139475159Y-84423467D01*
X139184008Y-84714618D01*
X139026439Y-85095024D01*
X139026439Y-85261097D01*
X138922535Y-85365001D01*
X136735000Y-85365001D01*
X136735000Y-85144126D01*
X136577431Y-84763720D01*
X136286280Y-84472569D01*
X135905874Y-84315000D01*
X135494126Y-84315000D01*
X135113720Y-84472569D01*
X134996289Y-84590000D01*
X134803711Y-84590000D01*
X134686280Y-84472569D01*
X134305874Y-84315000D01*
X133894126Y-84315000D01*
X133513720Y-84472569D01*
X133222569Y-84763720D01*
X133065000Y-85144126D01*
X133065000Y-85555874D01*
X133222569Y-85936280D01*
X133513720Y-86227431D01*
X133894126Y-86385000D01*
X134290198Y-86385000D01*
X132685199Y-87990000D01*
X131524846Y-87990000D01*
X131449999Y-87975112D01*
X131375152Y-87990000D01*
X131375148Y-87990000D01*
X131153463Y-88034096D01*
X131153461Y-88034097D01*
X131153462Y-88034097D01*
X130965526Y-88159671D01*
X130965524Y-88159673D01*
X130902071Y-88202071D01*
X130859673Y-88265524D01*
X130788579Y-88336618D01*
X130681458Y-87798082D01*
X130353244Y-87306875D01*
X130054858Y-87107500D01*
X130353244Y-86908125D01*
X130681458Y-86416918D01*
X130796711Y-85837500D01*
X130723828Y-85471092D01*
X134203105Y-81991816D01*
X134313720Y-82102431D01*
X134694126Y-82260000D01*
X135105874Y-82260000D01*
X135486280Y-82102431D01*
X135777431Y-81811280D01*
X135935000Y-81430874D01*
X135935000Y-81019126D01*
X135777431Y-80638720D01*
X135486280Y-80347569D01*
X135105874Y-80190000D01*
X134694126Y-80190000D01*
X134313720Y-80347569D01*
X134196289Y-80465000D01*
X133969965Y-80465000D01*
X133895118Y-80450112D01*
X133820271Y-80465000D01*
X133820267Y-80465000D01*
X133598582Y-80509096D01*
X133347190Y-80677071D01*
X133304790Y-80740527D01*
X131904375Y-82140943D01*
X131888311Y-82060185D01*
X131810000Y-81942984D01*
X131810000Y-81499727D01*
X131824888Y-81424880D01*
X131810000Y-81350033D01*
X131810000Y-81350029D01*
X131765904Y-81128344D01*
X131597929Y-80876952D01*
X131534473Y-80834552D01*
X130972950Y-80273030D01*
X130930548Y-80209571D01*
X130780059Y-80109017D01*
X130780059Y-79907500D01*
X130740774Y-79710000D01*
X152290001Y-79710000D01*
X152290000Y-102290000D01*
G36*
X134015000Y-90105874D02*
X134172569Y-90486280D01*
X134211289Y-90525000D01*
X134072569Y-90663720D01*
X133915000Y-91044126D01*
X133915000Y-91455874D01*
X134072569Y-91836280D01*
X134363720Y-92127431D01*
X134744126Y-92285000D01*
X134910199Y-92285000D01*
X136647818Y-94022620D01*
X136647817Y-96415000D01*
X136294126Y-96415000D01*
X135913720Y-96572569D01*
X135622569Y-96863720D01*
X135465000Y-97244126D01*
X135465000Y-97457213D01*
X135454740Y-97472569D01*
X135434097Y-97503463D01*
X135403781Y-97655874D01*
X135375112Y-97800000D01*
X135390001Y-97874852D01*
X135390000Y-99796289D01*
X135272569Y-99913720D01*
X135115000Y-100294126D01*
X135115000Y-100705874D01*
X135272569Y-101086280D01*
X135501278Y-101314989D01*
X132310001Y-101314989D01*
X132310001Y-96871159D01*
X132536280Y-96777431D01*
X132827431Y-96486280D01*
X132985000Y-96105874D01*
X132985000Y-95694126D01*
X132827431Y-95313720D01*
X132536280Y-95022569D01*
X132155874Y-94865000D01*
X131744126Y-94865000D01*
X131363720Y-95022569D01*
X131072569Y-95313720D01*
X130915000Y-95694126D01*
X130915000Y-95882383D01*
X130834097Y-96003463D01*
X130790001Y-96225148D01*
X130790001Y-96225152D01*
X130775113Y-96299999D01*
X130790001Y-96374846D01*
X130790002Y-101043771D01*
X130681458Y-100498082D01*
X130353244Y-100006875D01*
X130034141Y-99793657D01*
X130163977Y-99732683D01*
X130554264Y-99304424D01*
X130724095Y-98894390D01*
X130602774Y-98664500D01*
X129427000Y-98664500D01*
X129427000Y-98410500D01*
X130602774Y-98410500D01*
X130724095Y-98180610D01*
X130554264Y-97770576D01*
X130163977Y-97342317D01*
X130034141Y-97281343D01*
X130353244Y-97068125D01*
X130681458Y-96576918D01*
X130796711Y-95997500D01*
X130681458Y-95418082D01*
X130353244Y-94926875D01*
X130054858Y-94727500D01*
X130353244Y-94528125D01*
X130681458Y-94036918D01*
X130796711Y-93457500D01*
X130723828Y-93091092D01*
X134015000Y-89799921D01*
X134015000Y-90105874D01*
X134015000Y-90105874D01*
G37*
X134015000Y-90105874D02*
X134172569Y-90486280D01*
X134211289Y-90525000D01*
X134072569Y-90663720D01*
X133915000Y-91044126D01*
X133915000Y-91455874D01*
X134072569Y-91836280D01*
X134363720Y-92127431D01*
X134744126Y-92285000D01*
X134910199Y-92285000D01*
X136647818Y-94022620D01*
X136647817Y-96415000D01*
X136294126Y-96415000D01*
X135913720Y-96572569D01*
X135622569Y-96863720D01*
X135465000Y-97244126D01*
X135465000Y-97457213D01*
X135454740Y-97472569D01*
X135434097Y-97503463D01*
X135403781Y-97655874D01*
X135375112Y-97800000D01*
X135390001Y-97874852D01*
X135390000Y-99796289D01*
X135272569Y-99913720D01*
X135115000Y-100294126D01*
X135115000Y-100705874D01*
X135272569Y-101086280D01*
X135501278Y-101314989D01*
X132310001Y-101314989D01*
X132310001Y-96871159D01*
X132536280Y-96777431D01*
X132827431Y-96486280D01*
X132985000Y-96105874D01*
X132985000Y-95694126D01*
X132827431Y-95313720D01*
X132536280Y-95022569D01*
X132155874Y-94865000D01*
X131744126Y-94865000D01*
X131363720Y-95022569D01*
X131072569Y-95313720D01*
X130915000Y-95694126D01*
X130915000Y-95882383D01*
X130834097Y-96003463D01*
X130790001Y-96225148D01*
X130790001Y-96225152D01*
X130775113Y-96299999D01*
X130790001Y-96374846D01*
X130790002Y-101043771D01*
X130681458Y-100498082D01*
X130353244Y-100006875D01*
X130034141Y-99793657D01*
X130163977Y-99732683D01*
X130554264Y-99304424D01*
X130724095Y-98894390D01*
X130602774Y-98664500D01*
X129427000Y-98664500D01*
X129427000Y-98410500D01*
X130602774Y-98410500D01*
X130724095Y-98180610D01*
X130554264Y-97770576D01*
X130163977Y-97342317D01*
X130034141Y-97281343D01*
X130353244Y-97068125D01*
X130681458Y-96576918D01*
X130796711Y-95997500D01*
X130681458Y-95418082D01*
X130353244Y-94926875D01*
X130054858Y-94727500D01*
X130353244Y-94528125D01*
X130681458Y-94036918D01*
X130796711Y-93457500D01*
X130723828Y-93091092D01*
X134015000Y-89799921D01*
X134015000Y-90105874D01*
M02*
