G04 #@! TF.GenerationSoftware,KiCad,Pcbnew,5.0.0-rc1-44a33f2~62~ubuntu16.04.1*
G04 #@! TF.CreationDate,2018-04-05T21:06:55+03:00*
G04 #@! TF.ProjectId,accel-breakout,616363656C2D627265616B6F75742E6B,rev?*
G04 #@! TF.SameCoordinates,Original*
G04 #@! TF.FileFunction,Legend,Top*
G04 #@! TF.FilePolarity,Positive*
%FSLAX46Y46*%
G04 Gerber Fmt 4.6, Leading zero omitted, Abs format (unit mm)*
G04 Created by KiCad (PCBNEW 5.0.0-rc1-44a33f2~62~ubuntu16.04.1) date Thu Apr  5 21:06:55 2018*
%MOMM*%
%LPD*%
G01*
G04 APERTURE LIST*
%ADD10C,0.150000*%
%ADD11C,0.120000*%
G04 APERTURE END LIST*
D10*
X138095000Y-97200000D02*
X142095000Y-97200000D01*
X142095000Y-97200000D02*
X142095000Y-101200000D01*
X142095000Y-101200000D02*
X138095000Y-101200000D01*
X138095000Y-101200000D02*
X138095000Y-97200000D01*
X138395000Y-97700000D02*
G75*
G03X138395000Y-97700000I-100000J0D01*
G01*
D11*
X135155000Y-93885000D02*
X134855000Y-93885000D01*
X135155000Y-92465000D02*
X134855000Y-92465000D01*
X135130000Y-95215000D02*
X134830000Y-95215000D01*
X135130000Y-96635000D02*
X134830000Y-96635000D01*
X135500000Y-87265000D02*
X135200000Y-87265000D01*
X135500000Y-88685000D02*
X135200000Y-88685000D01*
X133390000Y-100030000D02*
X133390000Y-99730000D01*
X134810000Y-100030000D02*
X134810000Y-99730000D01*
X139695000Y-93885000D02*
X139995000Y-93885000D01*
X139695000Y-92465000D02*
X139995000Y-92465000D01*
X139625000Y-87165000D02*
X139925000Y-87165000D01*
X139625000Y-88585000D02*
X139925000Y-88585000D01*
X127952619Y-102407500D02*
X130612619Y-102407500D01*
X127952619Y-82027500D02*
X127952619Y-102407500D01*
X130612619Y-82027500D02*
X130612619Y-102407500D01*
X127952619Y-82027500D02*
X130612619Y-82027500D01*
X127952619Y-80757500D02*
X127952619Y-79427500D01*
X127952619Y-79427500D02*
X129282619Y-79427500D01*
X147050000Y-92700000D02*
X145650000Y-92700000D01*
X144950000Y-92000000D02*
X144950000Y-91400000D01*
X145650000Y-90700000D02*
X147050000Y-90700000D01*
X147750000Y-91400000D02*
X147750000Y-92000000D01*
X147750000Y-92000000D02*
G75*
G02X147050000Y-92700000I-700000J0D01*
G01*
X147050000Y-90700000D02*
G75*
G02X147750000Y-91400000I0J-700000D01*
G01*
X144950000Y-91400000D02*
G75*
G02X145650000Y-90700000I700000J0D01*
G01*
X145650000Y-92700000D02*
G75*
G02X144950000Y-92000000I0J700000D01*
G01*
X145550000Y-86300000D02*
G75*
G02X144850000Y-85600000I0J700000D01*
G01*
X144850000Y-85000000D02*
G75*
G02X145550000Y-84300000I700000J0D01*
G01*
X146950000Y-84300000D02*
G75*
G02X147650000Y-85000000I0J-700000D01*
G01*
X147650000Y-85600000D02*
G75*
G02X146950000Y-86300000I-700000J0D01*
G01*
X147650000Y-85000000D02*
X147650000Y-85600000D01*
X145550000Y-84300000D02*
X146950000Y-84300000D01*
X144850000Y-85600000D02*
X144850000Y-85000000D01*
X146950000Y-86300000D02*
X145550000Y-86300000D01*
X147025000Y-96300000D02*
X145625000Y-96300000D01*
X144925000Y-95600000D02*
X144925000Y-95000000D01*
X145625000Y-94300000D02*
X147025000Y-94300000D01*
X147725000Y-95000000D02*
X147725000Y-95600000D01*
X147725000Y-95600000D02*
G75*
G02X147025000Y-96300000I-700000J0D01*
G01*
X147025000Y-94300000D02*
G75*
G02X147725000Y-95000000I0J-700000D01*
G01*
X144925000Y-95000000D02*
G75*
G02X145625000Y-94300000I700000J0D01*
G01*
X145625000Y-96300000D02*
G75*
G02X144925000Y-95600000I0J700000D01*
G01*
X145500000Y-89500000D02*
G75*
G02X144800000Y-88800000I0J700000D01*
G01*
X144800000Y-88200000D02*
G75*
G02X145500000Y-87500000I700000J0D01*
G01*
X146900000Y-87500000D02*
G75*
G02X147600000Y-88200000I0J-700000D01*
G01*
X147600000Y-88800000D02*
G75*
G02X146900000Y-89500000I-700000J0D01*
G01*
X147600000Y-88200000D02*
X147600000Y-88800000D01*
X145500000Y-87500000D02*
X146900000Y-87500000D01*
X144800000Y-88800000D02*
X144800000Y-88200000D01*
X146900000Y-89500000D02*
X145500000Y-89500000D01*
X150455000Y-92410000D02*
X150155000Y-92410000D01*
X150455000Y-90990000D02*
X150155000Y-90990000D01*
X150430000Y-84590000D02*
X150130000Y-84590000D01*
X150430000Y-86010000D02*
X150130000Y-86010000D01*
X150455000Y-96035000D02*
X150155000Y-96035000D01*
X150455000Y-94615000D02*
X150155000Y-94615000D01*
X150455000Y-87790000D02*
X150155000Y-87790000D01*
X150455000Y-89210000D02*
X150155000Y-89210000D01*
D10*
X138600000Y-84675000D02*
X133600000Y-84675000D01*
X133600000Y-84675000D02*
X133600000Y-81675000D01*
X133600000Y-81675000D02*
X138600000Y-81675000D01*
X138600000Y-81675000D02*
X138600000Y-84675000D01*
X135100000Y-83475000D02*
G75*
G03X135100000Y-83475000I-100000J0D01*
G01*
D11*
X151750000Y-100350000D02*
G75*
G03X151750000Y-100350000I-1700000J0D01*
G01*
X151750000Y-81850000D02*
G75*
G03X151750000Y-81850000I-1700000J0D01*
G01*
D10*
X139363095Y-95772380D02*
X139363095Y-96581904D01*
X139410714Y-96677142D01*
X139458333Y-96724761D01*
X139553571Y-96772380D01*
X139744047Y-96772380D01*
X139839285Y-96724761D01*
X139886904Y-96677142D01*
X139934523Y-96581904D01*
X139934523Y-95772380D01*
X140934523Y-96772380D02*
X140363095Y-96772380D01*
X140648809Y-96772380D02*
X140648809Y-95772380D01*
X140553571Y-95915238D01*
X140458333Y-96010476D01*
X140363095Y-96058095D01*
X134883333Y-95007142D02*
X134835714Y-95054761D01*
X134692857Y-95102380D01*
X134597619Y-95102380D01*
X134454761Y-95054761D01*
X134359523Y-94959523D01*
X134311904Y-94864285D01*
X134264285Y-94673809D01*
X134264285Y-94530952D01*
X134311904Y-94340476D01*
X134359523Y-94245238D01*
X134454761Y-94150000D01*
X134597619Y-94102380D01*
X134692857Y-94102380D01*
X134835714Y-94150000D01*
X134883333Y-94197619D01*
X135835714Y-95102380D02*
X135264285Y-95102380D01*
X135550000Y-95102380D02*
X135550000Y-94102380D01*
X135454761Y-94245238D01*
X135359523Y-94340476D01*
X135264285Y-94388095D01*
X134633333Y-98007142D02*
X134585714Y-98054761D01*
X134442857Y-98102380D01*
X134347619Y-98102380D01*
X134204761Y-98054761D01*
X134109523Y-97959523D01*
X134061904Y-97864285D01*
X134014285Y-97673809D01*
X134014285Y-97530952D01*
X134061904Y-97340476D01*
X134109523Y-97245238D01*
X134204761Y-97150000D01*
X134347619Y-97102380D01*
X134442857Y-97102380D01*
X134585714Y-97150000D01*
X134633333Y-97197619D01*
X135014285Y-97197619D02*
X135061904Y-97150000D01*
X135157142Y-97102380D01*
X135395238Y-97102380D01*
X135490476Y-97150000D01*
X135538095Y-97197619D01*
X135585714Y-97292857D01*
X135585714Y-97388095D01*
X135538095Y-97530952D01*
X134966666Y-98102380D01*
X135585714Y-98102380D01*
X135133333Y-90057142D02*
X135085714Y-90104761D01*
X134942857Y-90152380D01*
X134847619Y-90152380D01*
X134704761Y-90104761D01*
X134609523Y-90009523D01*
X134561904Y-89914285D01*
X134514285Y-89723809D01*
X134514285Y-89580952D01*
X134561904Y-89390476D01*
X134609523Y-89295238D01*
X134704761Y-89200000D01*
X134847619Y-89152380D01*
X134942857Y-89152380D01*
X135085714Y-89200000D01*
X135133333Y-89247619D01*
X135466666Y-89152380D02*
X136085714Y-89152380D01*
X135752380Y-89533333D01*
X135895238Y-89533333D01*
X135990476Y-89580952D01*
X136038095Y-89628571D01*
X136085714Y-89723809D01*
X136085714Y-89961904D01*
X136038095Y-90057142D01*
X135990476Y-90104761D01*
X135895238Y-90152380D01*
X135609523Y-90152380D01*
X135514285Y-90104761D01*
X135466666Y-90057142D01*
X132607142Y-100046666D02*
X132654761Y-100094285D01*
X132702380Y-100237142D01*
X132702380Y-100332380D01*
X132654761Y-100475238D01*
X132559523Y-100570476D01*
X132464285Y-100618095D01*
X132273809Y-100665714D01*
X132130952Y-100665714D01*
X131940476Y-100618095D01*
X131845238Y-100570476D01*
X131750000Y-100475238D01*
X131702380Y-100332380D01*
X131702380Y-100237142D01*
X131750000Y-100094285D01*
X131797619Y-100046666D01*
X132035714Y-99189523D02*
X132702380Y-99189523D01*
X131654761Y-99427619D02*
X132369047Y-99665714D01*
X132369047Y-99046666D01*
X139678333Y-91682142D02*
X139630714Y-91729761D01*
X139487857Y-91777380D01*
X139392619Y-91777380D01*
X139249761Y-91729761D01*
X139154523Y-91634523D01*
X139106904Y-91539285D01*
X139059285Y-91348809D01*
X139059285Y-91205952D01*
X139106904Y-91015476D01*
X139154523Y-90920238D01*
X139249761Y-90825000D01*
X139392619Y-90777380D01*
X139487857Y-90777380D01*
X139630714Y-90825000D01*
X139678333Y-90872619D01*
X140583095Y-90777380D02*
X140106904Y-90777380D01*
X140059285Y-91253571D01*
X140106904Y-91205952D01*
X140202142Y-91158333D01*
X140440238Y-91158333D01*
X140535476Y-91205952D01*
X140583095Y-91253571D01*
X140630714Y-91348809D01*
X140630714Y-91586904D01*
X140583095Y-91682142D01*
X140535476Y-91729761D01*
X140440238Y-91777380D01*
X140202142Y-91777380D01*
X140106904Y-91729761D01*
X140059285Y-91682142D01*
X139583333Y-89857142D02*
X139535714Y-89904761D01*
X139392857Y-89952380D01*
X139297619Y-89952380D01*
X139154761Y-89904761D01*
X139059523Y-89809523D01*
X139011904Y-89714285D01*
X138964285Y-89523809D01*
X138964285Y-89380952D01*
X139011904Y-89190476D01*
X139059523Y-89095238D01*
X139154761Y-89000000D01*
X139297619Y-88952380D01*
X139392857Y-88952380D01*
X139535714Y-89000000D01*
X139583333Y-89047619D01*
X140440476Y-88952380D02*
X140250000Y-88952380D01*
X140154761Y-89000000D01*
X140107142Y-89047619D01*
X140011904Y-89190476D01*
X139964285Y-89380952D01*
X139964285Y-89761904D01*
X140011904Y-89857142D01*
X140059523Y-89904761D01*
X140154761Y-89952380D01*
X140345238Y-89952380D01*
X140440476Y-89904761D01*
X140488095Y-89857142D01*
X140535714Y-89761904D01*
X140535714Y-89523809D01*
X140488095Y-89428571D01*
X140440476Y-89380952D01*
X140345238Y-89333333D01*
X140154761Y-89333333D01*
X140059523Y-89380952D01*
X140011904Y-89428571D01*
X139964285Y-89523809D01*
X131866666Y-80052380D02*
X131866666Y-80766666D01*
X131819047Y-80909523D01*
X131723809Y-81004761D01*
X131580952Y-81052380D01*
X131485714Y-81052380D01*
X132866666Y-81052380D02*
X132295238Y-81052380D01*
X132580952Y-81052380D02*
X132580952Y-80052380D01*
X132485714Y-80195238D01*
X132390476Y-80290476D01*
X132295238Y-80338095D01*
X145516666Y-92952380D02*
X145516666Y-93666666D01*
X145469047Y-93809523D01*
X145373809Y-93904761D01*
X145230952Y-93952380D01*
X145135714Y-93952380D01*
X145992857Y-93952380D02*
X145992857Y-92952380D01*
X146373809Y-92952380D01*
X146469047Y-93000000D01*
X146516666Y-93047619D01*
X146564285Y-93142857D01*
X146564285Y-93285714D01*
X146516666Y-93380952D01*
X146469047Y-93428571D01*
X146373809Y-93476190D01*
X145992857Y-93476190D01*
X147516666Y-93952380D02*
X146945238Y-93952380D01*
X147230952Y-93952380D02*
X147230952Y-92952380D01*
X147135714Y-93095238D01*
X147040476Y-93190476D01*
X146945238Y-93238095D01*
X145416666Y-86402380D02*
X145416666Y-87116666D01*
X145369047Y-87259523D01*
X145273809Y-87354761D01*
X145130952Y-87402380D01*
X145035714Y-87402380D01*
X145892857Y-87402380D02*
X145892857Y-86402380D01*
X146273809Y-86402380D01*
X146369047Y-86450000D01*
X146416666Y-86497619D01*
X146464285Y-86592857D01*
X146464285Y-86735714D01*
X146416666Y-86830952D01*
X146369047Y-86878571D01*
X146273809Y-86926190D01*
X145892857Y-86926190D01*
X146845238Y-86497619D02*
X146892857Y-86450000D01*
X146988095Y-86402380D01*
X147226190Y-86402380D01*
X147321428Y-86450000D01*
X147369047Y-86497619D01*
X147416666Y-86592857D01*
X147416666Y-86688095D01*
X147369047Y-86830952D01*
X146797619Y-87402380D01*
X147416666Y-87402380D01*
X145491666Y-96552380D02*
X145491666Y-97266666D01*
X145444047Y-97409523D01*
X145348809Y-97504761D01*
X145205952Y-97552380D01*
X145110714Y-97552380D01*
X145967857Y-97552380D02*
X145967857Y-96552380D01*
X146348809Y-96552380D01*
X146444047Y-96600000D01*
X146491666Y-96647619D01*
X146539285Y-96742857D01*
X146539285Y-96885714D01*
X146491666Y-96980952D01*
X146444047Y-97028571D01*
X146348809Y-97076190D01*
X145967857Y-97076190D01*
X146872619Y-96552380D02*
X147491666Y-96552380D01*
X147158333Y-96933333D01*
X147301190Y-96933333D01*
X147396428Y-96980952D01*
X147444047Y-97028571D01*
X147491666Y-97123809D01*
X147491666Y-97361904D01*
X147444047Y-97457142D01*
X147396428Y-97504761D01*
X147301190Y-97552380D01*
X147015476Y-97552380D01*
X146920238Y-97504761D01*
X146872619Y-97457142D01*
X145366666Y-89752380D02*
X145366666Y-90466666D01*
X145319047Y-90609523D01*
X145223809Y-90704761D01*
X145080952Y-90752380D01*
X144985714Y-90752380D01*
X145842857Y-90752380D02*
X145842857Y-89752380D01*
X146223809Y-89752380D01*
X146319047Y-89800000D01*
X146366666Y-89847619D01*
X146414285Y-89942857D01*
X146414285Y-90085714D01*
X146366666Y-90180952D01*
X146319047Y-90228571D01*
X146223809Y-90276190D01*
X145842857Y-90276190D01*
X147271428Y-90085714D02*
X147271428Y-90752380D01*
X147033333Y-89704761D02*
X146795238Y-90419047D01*
X147414285Y-90419047D01*
X149333333Y-93802380D02*
X149000000Y-93326190D01*
X148761904Y-93802380D02*
X148761904Y-92802380D01*
X149142857Y-92802380D01*
X149238095Y-92850000D01*
X149285714Y-92897619D01*
X149333333Y-92992857D01*
X149333333Y-93135714D01*
X149285714Y-93230952D01*
X149238095Y-93278571D01*
X149142857Y-93326190D01*
X148761904Y-93326190D01*
X150285714Y-93802380D02*
X149714285Y-93802380D01*
X150000000Y-93802380D02*
X150000000Y-92802380D01*
X149904761Y-92945238D01*
X149809523Y-93040476D01*
X149714285Y-93088095D01*
X149333333Y-87352380D02*
X149000000Y-86876190D01*
X148761904Y-87352380D02*
X148761904Y-86352380D01*
X149142857Y-86352380D01*
X149238095Y-86400000D01*
X149285714Y-86447619D01*
X149333333Y-86542857D01*
X149333333Y-86685714D01*
X149285714Y-86780952D01*
X149238095Y-86828571D01*
X149142857Y-86876190D01*
X148761904Y-86876190D01*
X149714285Y-86447619D02*
X149761904Y-86400000D01*
X149857142Y-86352380D01*
X150095238Y-86352380D01*
X150190476Y-86400000D01*
X150238095Y-86447619D01*
X150285714Y-86542857D01*
X150285714Y-86638095D01*
X150238095Y-86780952D01*
X149666666Y-87352380D01*
X150285714Y-87352380D01*
X149433333Y-97452380D02*
X149100000Y-96976190D01*
X148861904Y-97452380D02*
X148861904Y-96452380D01*
X149242857Y-96452380D01*
X149338095Y-96500000D01*
X149385714Y-96547619D01*
X149433333Y-96642857D01*
X149433333Y-96785714D01*
X149385714Y-96880952D01*
X149338095Y-96928571D01*
X149242857Y-96976190D01*
X148861904Y-96976190D01*
X149766666Y-96452380D02*
X150385714Y-96452380D01*
X150052380Y-96833333D01*
X150195238Y-96833333D01*
X150290476Y-96880952D01*
X150338095Y-96928571D01*
X150385714Y-97023809D01*
X150385714Y-97261904D01*
X150338095Y-97357142D01*
X150290476Y-97404761D01*
X150195238Y-97452380D01*
X149909523Y-97452380D01*
X149814285Y-97404761D01*
X149766666Y-97357142D01*
X149333333Y-90552380D02*
X149000000Y-90076190D01*
X148761904Y-90552380D02*
X148761904Y-89552380D01*
X149142857Y-89552380D01*
X149238095Y-89600000D01*
X149285714Y-89647619D01*
X149333333Y-89742857D01*
X149333333Y-89885714D01*
X149285714Y-89980952D01*
X149238095Y-90028571D01*
X149142857Y-90076190D01*
X148761904Y-90076190D01*
X150190476Y-89885714D02*
X150190476Y-90552380D01*
X149952380Y-89504761D02*
X149714285Y-90219047D01*
X150333333Y-90219047D01*
X137188095Y-80152380D02*
X137188095Y-80961904D01*
X137235714Y-81057142D01*
X137283333Y-81104761D01*
X137378571Y-81152380D01*
X137569047Y-81152380D01*
X137664285Y-81104761D01*
X137711904Y-81057142D01*
X137759523Y-80961904D01*
X137759523Y-80152380D01*
X138188095Y-80247619D02*
X138235714Y-80200000D01*
X138330952Y-80152380D01*
X138569047Y-80152380D01*
X138664285Y-80200000D01*
X138711904Y-80247619D01*
X138759523Y-80342857D01*
X138759523Y-80438095D01*
X138711904Y-80580952D01*
X138140476Y-81152380D01*
X138759523Y-81152380D01*
X146190476Y-102152380D02*
X146190476Y-101152380D01*
X146523809Y-101866666D01*
X146857142Y-101152380D01*
X146857142Y-102152380D01*
X147285714Y-101247619D02*
X147333333Y-101200000D01*
X147428571Y-101152380D01*
X147666666Y-101152380D01*
X147761904Y-101200000D01*
X147809523Y-101247619D01*
X147857142Y-101342857D01*
X147857142Y-101438095D01*
X147809523Y-101580952D01*
X147238095Y-102152380D01*
X147857142Y-102152380D01*
X145640476Y-81052380D02*
X145640476Y-80052380D01*
X145973809Y-80766666D01*
X146307142Y-80052380D01*
X146307142Y-81052380D01*
X147307142Y-81052380D02*
X146735714Y-81052380D01*
X147021428Y-81052380D02*
X147021428Y-80052380D01*
X146926190Y-80195238D01*
X146830952Y-80290476D01*
X146735714Y-80338095D01*
M02*
