G04 #@! TF.GenerationSoftware,KiCad,Pcbnew,5.0.0-rc1-44a33f2~62~ubuntu16.04.1*
G04 #@! TF.CreationDate,2018-04-05T21:06:55+03:00*
G04 #@! TF.ProjectId,accel-breakout,616363656C2D627265616B6F75742E6B,rev?*
G04 #@! TF.SameCoordinates,Original*
G04 #@! TF.FileFunction,Copper,L1,Top,Signal*
G04 #@! TF.FilePolarity,Positive*
%FSLAX46Y46*%
G04 Gerber Fmt 4.6, Leading zero omitted, Abs format (unit mm)*
G04 Created by KiCad (PCBNEW 5.0.0-rc1-44a33f2~62~ubuntu16.04.1) date Thu Apr  5 21:06:55 2018*
%MOMM*%
%LPD*%
G01*
G04 APERTURE LIST*
%ADD10R,0.400000X0.300000*%
%ADD11R,0.300000X0.400000*%
%ADD12R,0.970000X1.500000*%
%ADD13R,1.500000X0.970000*%
%ADD14R,1.700000X1.700000*%
%ADD15O,1.700000X1.700000*%
%ADD16R,0.500000X1.500000*%
%ADD17C,0.100000*%
%ADD18C,1.000000*%
%ADD19R,0.500000X0.800000*%
%ADD20R,0.800000X0.500000*%
%ADD21C,3.000000*%
%ADD22C,0.800000*%
%ADD23C,0.250000*%
%ADD24C,0.254000*%
G04 APERTURE END LIST*
D10*
X138395000Y-98230000D03*
X138395000Y-98880000D03*
X138395000Y-99520000D03*
X138395000Y-100170000D03*
D11*
X139125000Y-100900000D03*
X139775000Y-100900000D03*
X140415000Y-100900000D03*
X141065000Y-100900000D03*
D10*
X141795000Y-100170000D03*
X141795000Y-99520000D03*
X141795000Y-98880000D03*
X141795000Y-98230000D03*
D11*
X141065000Y-97500000D03*
X140415000Y-97500000D03*
X139775000Y-97500000D03*
X139125000Y-97500000D03*
D12*
X135960000Y-93175000D03*
X134050000Y-93175000D03*
X134025000Y-95925000D03*
X135935000Y-95925000D03*
X134395000Y-87975000D03*
X136305000Y-87975000D03*
D13*
X134100000Y-100835000D03*
X134100000Y-98925000D03*
D12*
X140800000Y-93175000D03*
X138890000Y-93175000D03*
X138820000Y-87875000D03*
X140730000Y-87875000D03*
D14*
X129282619Y-80757500D03*
D15*
X129282619Y-83297500D03*
X129282619Y-85837500D03*
X129282619Y-88377500D03*
X129282619Y-90917500D03*
X129282619Y-93457500D03*
X129282619Y-95997500D03*
X129282619Y-98537500D03*
X129282619Y-101077500D03*
D16*
X145950000Y-91700000D03*
X146750000Y-91700000D03*
D17*
G36*
X147049010Y-90952408D02*
X147097546Y-90959607D01*
X147145143Y-90971530D01*
X147191343Y-90988060D01*
X147235699Y-91009039D01*
X147277786Y-91034265D01*
X147317198Y-91063495D01*
X147353554Y-91096447D01*
X147386506Y-91132803D01*
X147415736Y-91172215D01*
X147440962Y-91214302D01*
X147461941Y-91258658D01*
X147478471Y-91304858D01*
X147490394Y-91352455D01*
X147497593Y-91400991D01*
X147500001Y-91450000D01*
X147500001Y-91950000D01*
X147497593Y-91999009D01*
X147490394Y-92047545D01*
X147478471Y-92095142D01*
X147461941Y-92141342D01*
X147440962Y-92185698D01*
X147415736Y-92227785D01*
X147386506Y-92267197D01*
X147353554Y-92303553D01*
X147317198Y-92336505D01*
X147277786Y-92365735D01*
X147235699Y-92390961D01*
X147191343Y-92411940D01*
X147145143Y-92428470D01*
X147097546Y-92440393D01*
X147049010Y-92447592D01*
X147000001Y-92450000D01*
X146999999Y-92450000D01*
X146950990Y-92447592D01*
X146902454Y-92440393D01*
X146854857Y-92428470D01*
X146808657Y-92411940D01*
X146764301Y-92390961D01*
X146722214Y-92365735D01*
X146682802Y-92336505D01*
X146646446Y-92303553D01*
X146613494Y-92267197D01*
X146584264Y-92227785D01*
X146559038Y-92185698D01*
X146538059Y-92141342D01*
X146521529Y-92095142D01*
X146509606Y-92047545D01*
X146502407Y-91999009D01*
X146499999Y-91950000D01*
X146499999Y-91450000D01*
X146502407Y-91400991D01*
X146509606Y-91352455D01*
X146521529Y-91304858D01*
X146538059Y-91258658D01*
X146559038Y-91214302D01*
X146584264Y-91172215D01*
X146613494Y-91132803D01*
X146646446Y-91096447D01*
X146682802Y-91063495D01*
X146722214Y-91034265D01*
X146764301Y-91009039D01*
X146808657Y-90988060D01*
X146854857Y-90971530D01*
X146902454Y-90959607D01*
X146950990Y-90952408D01*
X146999999Y-90950000D01*
X147000001Y-90950000D01*
X147049010Y-90952408D01*
X147049010Y-90952408D01*
G37*
D18*
X147000000Y-91700000D03*
D17*
G36*
X145749010Y-90952408D02*
X145797546Y-90959607D01*
X145845143Y-90971530D01*
X145891343Y-90988060D01*
X145935699Y-91009039D01*
X145977786Y-91034265D01*
X146017198Y-91063495D01*
X146053554Y-91096447D01*
X146086506Y-91132803D01*
X146115736Y-91172215D01*
X146140962Y-91214302D01*
X146161941Y-91258658D01*
X146178471Y-91304858D01*
X146190394Y-91352455D01*
X146197593Y-91400991D01*
X146200001Y-91450000D01*
X146200001Y-91950000D01*
X146197593Y-91999009D01*
X146190394Y-92047545D01*
X146178471Y-92095142D01*
X146161941Y-92141342D01*
X146140962Y-92185698D01*
X146115736Y-92227785D01*
X146086506Y-92267197D01*
X146053554Y-92303553D01*
X146017198Y-92336505D01*
X145977786Y-92365735D01*
X145935699Y-92390961D01*
X145891343Y-92411940D01*
X145845143Y-92428470D01*
X145797546Y-92440393D01*
X145749010Y-92447592D01*
X145700001Y-92450000D01*
X145699999Y-92450000D01*
X145650990Y-92447592D01*
X145602454Y-92440393D01*
X145554857Y-92428470D01*
X145508657Y-92411940D01*
X145464301Y-92390961D01*
X145422214Y-92365735D01*
X145382802Y-92336505D01*
X145346446Y-92303553D01*
X145313494Y-92267197D01*
X145284264Y-92227785D01*
X145259038Y-92185698D01*
X145238059Y-92141342D01*
X145221529Y-92095142D01*
X145209606Y-92047545D01*
X145202407Y-91999009D01*
X145199999Y-91950000D01*
X145199999Y-91450000D01*
X145202407Y-91400991D01*
X145209606Y-91352455D01*
X145221529Y-91304858D01*
X145238059Y-91258658D01*
X145259038Y-91214302D01*
X145284264Y-91172215D01*
X145313494Y-91132803D01*
X145346446Y-91096447D01*
X145382802Y-91063495D01*
X145422214Y-91034265D01*
X145464301Y-91009039D01*
X145508657Y-90988060D01*
X145554857Y-90971530D01*
X145602454Y-90959607D01*
X145650990Y-90952408D01*
X145699999Y-90950000D01*
X145700001Y-90950000D01*
X145749010Y-90952408D01*
X145749010Y-90952408D01*
G37*
D18*
X145700000Y-91700000D03*
D17*
G36*
X145649010Y-84552408D02*
X145697546Y-84559607D01*
X145745143Y-84571530D01*
X145791343Y-84588060D01*
X145835699Y-84609039D01*
X145877786Y-84634265D01*
X145917198Y-84663495D01*
X145953554Y-84696447D01*
X145986506Y-84732803D01*
X146015736Y-84772215D01*
X146040962Y-84814302D01*
X146061941Y-84858658D01*
X146078471Y-84904858D01*
X146090394Y-84952455D01*
X146097593Y-85000991D01*
X146100001Y-85050000D01*
X146100001Y-85550000D01*
X146097593Y-85599009D01*
X146090394Y-85647545D01*
X146078471Y-85695142D01*
X146061941Y-85741342D01*
X146040962Y-85785698D01*
X146015736Y-85827785D01*
X145986506Y-85867197D01*
X145953554Y-85903553D01*
X145917198Y-85936505D01*
X145877786Y-85965735D01*
X145835699Y-85990961D01*
X145791343Y-86011940D01*
X145745143Y-86028470D01*
X145697546Y-86040393D01*
X145649010Y-86047592D01*
X145600001Y-86050000D01*
X145599999Y-86050000D01*
X145550990Y-86047592D01*
X145502454Y-86040393D01*
X145454857Y-86028470D01*
X145408657Y-86011940D01*
X145364301Y-85990961D01*
X145322214Y-85965735D01*
X145282802Y-85936505D01*
X145246446Y-85903553D01*
X145213494Y-85867197D01*
X145184264Y-85827785D01*
X145159038Y-85785698D01*
X145138059Y-85741342D01*
X145121529Y-85695142D01*
X145109606Y-85647545D01*
X145102407Y-85599009D01*
X145099999Y-85550000D01*
X145099999Y-85050000D01*
X145102407Y-85000991D01*
X145109606Y-84952455D01*
X145121529Y-84904858D01*
X145138059Y-84858658D01*
X145159038Y-84814302D01*
X145184264Y-84772215D01*
X145213494Y-84732803D01*
X145246446Y-84696447D01*
X145282802Y-84663495D01*
X145322214Y-84634265D01*
X145364301Y-84609039D01*
X145408657Y-84588060D01*
X145454857Y-84571530D01*
X145502454Y-84559607D01*
X145550990Y-84552408D01*
X145599999Y-84550000D01*
X145600001Y-84550000D01*
X145649010Y-84552408D01*
X145649010Y-84552408D01*
G37*
D18*
X145600000Y-85300000D03*
D17*
G36*
X146949010Y-84552408D02*
X146997546Y-84559607D01*
X147045143Y-84571530D01*
X147091343Y-84588060D01*
X147135699Y-84609039D01*
X147177786Y-84634265D01*
X147217198Y-84663495D01*
X147253554Y-84696447D01*
X147286506Y-84732803D01*
X147315736Y-84772215D01*
X147340962Y-84814302D01*
X147361941Y-84858658D01*
X147378471Y-84904858D01*
X147390394Y-84952455D01*
X147397593Y-85000991D01*
X147400001Y-85050000D01*
X147400001Y-85550000D01*
X147397593Y-85599009D01*
X147390394Y-85647545D01*
X147378471Y-85695142D01*
X147361941Y-85741342D01*
X147340962Y-85785698D01*
X147315736Y-85827785D01*
X147286506Y-85867197D01*
X147253554Y-85903553D01*
X147217198Y-85936505D01*
X147177786Y-85965735D01*
X147135699Y-85990961D01*
X147091343Y-86011940D01*
X147045143Y-86028470D01*
X146997546Y-86040393D01*
X146949010Y-86047592D01*
X146900001Y-86050000D01*
X146899999Y-86050000D01*
X146850990Y-86047592D01*
X146802454Y-86040393D01*
X146754857Y-86028470D01*
X146708657Y-86011940D01*
X146664301Y-85990961D01*
X146622214Y-85965735D01*
X146582802Y-85936505D01*
X146546446Y-85903553D01*
X146513494Y-85867197D01*
X146484264Y-85827785D01*
X146459038Y-85785698D01*
X146438059Y-85741342D01*
X146421529Y-85695142D01*
X146409606Y-85647545D01*
X146402407Y-85599009D01*
X146399999Y-85550000D01*
X146399999Y-85050000D01*
X146402407Y-85000991D01*
X146409606Y-84952455D01*
X146421529Y-84904858D01*
X146438059Y-84858658D01*
X146459038Y-84814302D01*
X146484264Y-84772215D01*
X146513494Y-84732803D01*
X146546446Y-84696447D01*
X146582802Y-84663495D01*
X146622214Y-84634265D01*
X146664301Y-84609039D01*
X146708657Y-84588060D01*
X146754857Y-84571530D01*
X146802454Y-84559607D01*
X146850990Y-84552408D01*
X146899999Y-84550000D01*
X146900001Y-84550000D01*
X146949010Y-84552408D01*
X146949010Y-84552408D01*
G37*
D18*
X146900000Y-85300000D03*
D16*
X146650000Y-85300000D03*
X145850000Y-85300000D03*
X145925000Y-95300000D03*
X146725000Y-95300000D03*
D17*
G36*
X147024010Y-94552408D02*
X147072546Y-94559607D01*
X147120143Y-94571530D01*
X147166343Y-94588060D01*
X147210699Y-94609039D01*
X147252786Y-94634265D01*
X147292198Y-94663495D01*
X147328554Y-94696447D01*
X147361506Y-94732803D01*
X147390736Y-94772215D01*
X147415962Y-94814302D01*
X147436941Y-94858658D01*
X147453471Y-94904858D01*
X147465394Y-94952455D01*
X147472593Y-95000991D01*
X147475001Y-95050000D01*
X147475001Y-95550000D01*
X147472593Y-95599009D01*
X147465394Y-95647545D01*
X147453471Y-95695142D01*
X147436941Y-95741342D01*
X147415962Y-95785698D01*
X147390736Y-95827785D01*
X147361506Y-95867197D01*
X147328554Y-95903553D01*
X147292198Y-95936505D01*
X147252786Y-95965735D01*
X147210699Y-95990961D01*
X147166343Y-96011940D01*
X147120143Y-96028470D01*
X147072546Y-96040393D01*
X147024010Y-96047592D01*
X146975001Y-96050000D01*
X146974999Y-96050000D01*
X146925990Y-96047592D01*
X146877454Y-96040393D01*
X146829857Y-96028470D01*
X146783657Y-96011940D01*
X146739301Y-95990961D01*
X146697214Y-95965735D01*
X146657802Y-95936505D01*
X146621446Y-95903553D01*
X146588494Y-95867197D01*
X146559264Y-95827785D01*
X146534038Y-95785698D01*
X146513059Y-95741342D01*
X146496529Y-95695142D01*
X146484606Y-95647545D01*
X146477407Y-95599009D01*
X146474999Y-95550000D01*
X146474999Y-95050000D01*
X146477407Y-95000991D01*
X146484606Y-94952455D01*
X146496529Y-94904858D01*
X146513059Y-94858658D01*
X146534038Y-94814302D01*
X146559264Y-94772215D01*
X146588494Y-94732803D01*
X146621446Y-94696447D01*
X146657802Y-94663495D01*
X146697214Y-94634265D01*
X146739301Y-94609039D01*
X146783657Y-94588060D01*
X146829857Y-94571530D01*
X146877454Y-94559607D01*
X146925990Y-94552408D01*
X146974999Y-94550000D01*
X146975001Y-94550000D01*
X147024010Y-94552408D01*
X147024010Y-94552408D01*
G37*
D18*
X146975000Y-95300000D03*
D17*
G36*
X145724010Y-94552408D02*
X145772546Y-94559607D01*
X145820143Y-94571530D01*
X145866343Y-94588060D01*
X145910699Y-94609039D01*
X145952786Y-94634265D01*
X145992198Y-94663495D01*
X146028554Y-94696447D01*
X146061506Y-94732803D01*
X146090736Y-94772215D01*
X146115962Y-94814302D01*
X146136941Y-94858658D01*
X146153471Y-94904858D01*
X146165394Y-94952455D01*
X146172593Y-95000991D01*
X146175001Y-95050000D01*
X146175001Y-95550000D01*
X146172593Y-95599009D01*
X146165394Y-95647545D01*
X146153471Y-95695142D01*
X146136941Y-95741342D01*
X146115962Y-95785698D01*
X146090736Y-95827785D01*
X146061506Y-95867197D01*
X146028554Y-95903553D01*
X145992198Y-95936505D01*
X145952786Y-95965735D01*
X145910699Y-95990961D01*
X145866343Y-96011940D01*
X145820143Y-96028470D01*
X145772546Y-96040393D01*
X145724010Y-96047592D01*
X145675001Y-96050000D01*
X145674999Y-96050000D01*
X145625990Y-96047592D01*
X145577454Y-96040393D01*
X145529857Y-96028470D01*
X145483657Y-96011940D01*
X145439301Y-95990961D01*
X145397214Y-95965735D01*
X145357802Y-95936505D01*
X145321446Y-95903553D01*
X145288494Y-95867197D01*
X145259264Y-95827785D01*
X145234038Y-95785698D01*
X145213059Y-95741342D01*
X145196529Y-95695142D01*
X145184606Y-95647545D01*
X145177407Y-95599009D01*
X145174999Y-95550000D01*
X145174999Y-95050000D01*
X145177407Y-95000991D01*
X145184606Y-94952455D01*
X145196529Y-94904858D01*
X145213059Y-94858658D01*
X145234038Y-94814302D01*
X145259264Y-94772215D01*
X145288494Y-94732803D01*
X145321446Y-94696447D01*
X145357802Y-94663495D01*
X145397214Y-94634265D01*
X145439301Y-94609039D01*
X145483657Y-94588060D01*
X145529857Y-94571530D01*
X145577454Y-94559607D01*
X145625990Y-94552408D01*
X145674999Y-94550000D01*
X145675001Y-94550000D01*
X145724010Y-94552408D01*
X145724010Y-94552408D01*
G37*
D18*
X145675000Y-95300000D03*
D17*
G36*
X145599010Y-87752408D02*
X145647546Y-87759607D01*
X145695143Y-87771530D01*
X145741343Y-87788060D01*
X145785699Y-87809039D01*
X145827786Y-87834265D01*
X145867198Y-87863495D01*
X145903554Y-87896447D01*
X145936506Y-87932803D01*
X145965736Y-87972215D01*
X145990962Y-88014302D01*
X146011941Y-88058658D01*
X146028471Y-88104858D01*
X146040394Y-88152455D01*
X146047593Y-88200991D01*
X146050001Y-88250000D01*
X146050001Y-88750000D01*
X146047593Y-88799009D01*
X146040394Y-88847545D01*
X146028471Y-88895142D01*
X146011941Y-88941342D01*
X145990962Y-88985698D01*
X145965736Y-89027785D01*
X145936506Y-89067197D01*
X145903554Y-89103553D01*
X145867198Y-89136505D01*
X145827786Y-89165735D01*
X145785699Y-89190961D01*
X145741343Y-89211940D01*
X145695143Y-89228470D01*
X145647546Y-89240393D01*
X145599010Y-89247592D01*
X145550001Y-89250000D01*
X145549999Y-89250000D01*
X145500990Y-89247592D01*
X145452454Y-89240393D01*
X145404857Y-89228470D01*
X145358657Y-89211940D01*
X145314301Y-89190961D01*
X145272214Y-89165735D01*
X145232802Y-89136505D01*
X145196446Y-89103553D01*
X145163494Y-89067197D01*
X145134264Y-89027785D01*
X145109038Y-88985698D01*
X145088059Y-88941342D01*
X145071529Y-88895142D01*
X145059606Y-88847545D01*
X145052407Y-88799009D01*
X145049999Y-88750000D01*
X145049999Y-88250000D01*
X145052407Y-88200991D01*
X145059606Y-88152455D01*
X145071529Y-88104858D01*
X145088059Y-88058658D01*
X145109038Y-88014302D01*
X145134264Y-87972215D01*
X145163494Y-87932803D01*
X145196446Y-87896447D01*
X145232802Y-87863495D01*
X145272214Y-87834265D01*
X145314301Y-87809039D01*
X145358657Y-87788060D01*
X145404857Y-87771530D01*
X145452454Y-87759607D01*
X145500990Y-87752408D01*
X145549999Y-87750000D01*
X145550001Y-87750000D01*
X145599010Y-87752408D01*
X145599010Y-87752408D01*
G37*
D18*
X145550000Y-88500000D03*
D17*
G36*
X146899010Y-87752408D02*
X146947546Y-87759607D01*
X146995143Y-87771530D01*
X147041343Y-87788060D01*
X147085699Y-87809039D01*
X147127786Y-87834265D01*
X147167198Y-87863495D01*
X147203554Y-87896447D01*
X147236506Y-87932803D01*
X147265736Y-87972215D01*
X147290962Y-88014302D01*
X147311941Y-88058658D01*
X147328471Y-88104858D01*
X147340394Y-88152455D01*
X147347593Y-88200991D01*
X147350001Y-88250000D01*
X147350001Y-88750000D01*
X147347593Y-88799009D01*
X147340394Y-88847545D01*
X147328471Y-88895142D01*
X147311941Y-88941342D01*
X147290962Y-88985698D01*
X147265736Y-89027785D01*
X147236506Y-89067197D01*
X147203554Y-89103553D01*
X147167198Y-89136505D01*
X147127786Y-89165735D01*
X147085699Y-89190961D01*
X147041343Y-89211940D01*
X146995143Y-89228470D01*
X146947546Y-89240393D01*
X146899010Y-89247592D01*
X146850001Y-89250000D01*
X146849999Y-89250000D01*
X146800990Y-89247592D01*
X146752454Y-89240393D01*
X146704857Y-89228470D01*
X146658657Y-89211940D01*
X146614301Y-89190961D01*
X146572214Y-89165735D01*
X146532802Y-89136505D01*
X146496446Y-89103553D01*
X146463494Y-89067197D01*
X146434264Y-89027785D01*
X146409038Y-88985698D01*
X146388059Y-88941342D01*
X146371529Y-88895142D01*
X146359606Y-88847545D01*
X146352407Y-88799009D01*
X146349999Y-88750000D01*
X146349999Y-88250000D01*
X146352407Y-88200991D01*
X146359606Y-88152455D01*
X146371529Y-88104858D01*
X146388059Y-88058658D01*
X146409038Y-88014302D01*
X146434264Y-87972215D01*
X146463494Y-87932803D01*
X146496446Y-87896447D01*
X146532802Y-87863495D01*
X146572214Y-87834265D01*
X146614301Y-87809039D01*
X146658657Y-87788060D01*
X146704857Y-87771530D01*
X146752454Y-87759607D01*
X146800990Y-87752408D01*
X146849999Y-87750000D01*
X146850001Y-87750000D01*
X146899010Y-87752408D01*
X146899010Y-87752408D01*
G37*
D18*
X146850000Y-88500000D03*
D16*
X146600000Y-88500000D03*
X145800000Y-88500000D03*
D12*
X151260000Y-91700000D03*
X149350000Y-91700000D03*
X149325000Y-85300000D03*
X151235000Y-85300000D03*
X151260000Y-95325000D03*
X149350000Y-95325000D03*
X149350000Y-88500000D03*
X151260000Y-88500000D03*
D19*
X134100000Y-84175000D03*
X134900000Y-84175000D03*
X135700000Y-84175000D03*
X136500000Y-84175000D03*
X137300000Y-84175000D03*
X138100000Y-84175000D03*
D20*
X138100000Y-83175000D03*
D19*
X138100000Y-82175000D03*
X137300000Y-82175000D03*
X136500000Y-82175000D03*
X135700000Y-82175000D03*
X134900000Y-82175000D03*
X134100000Y-82175000D03*
D20*
X134100000Y-83175000D03*
D21*
X150050000Y-100350000D03*
X150050000Y-81850000D03*
D22*
X135700000Y-85350000D03*
X134100000Y-85350000D03*
X136500000Y-97450000D03*
X136150000Y-100500000D03*
X144000000Y-98450000D03*
X144300000Y-96450000D03*
X132550000Y-99900000D03*
X143350000Y-99950000D03*
X131350000Y-87750000D03*
X132540912Y-85399991D03*
X132658104Y-92782785D03*
X142550000Y-90450000D03*
X138400000Y-90500000D03*
X138900000Y-85300000D03*
X137050000Y-85400000D03*
X136400000Y-81000000D03*
X135050000Y-89900000D03*
X139800000Y-98350000D03*
X141500000Y-96450000D03*
X131172407Y-82922407D03*
X143800000Y-85200000D03*
X144100000Y-95000000D03*
X142550000Y-96673002D03*
X139300000Y-99750000D03*
X134950000Y-91250000D03*
X137407817Y-98955000D03*
X134900000Y-81225000D03*
X140061439Y-85300898D03*
X140680706Y-101674990D03*
X139400000Y-82200000D03*
X131950000Y-95900000D03*
X142450000Y-94450000D03*
X140750000Y-99950000D03*
D23*
X139700000Y-97050000D02*
X139775000Y-97125000D01*
X139775000Y-97125000D02*
X139775000Y-97500000D01*
X139250000Y-97050000D02*
X139700000Y-97050000D01*
X139125000Y-97175000D02*
X139250000Y-97050000D01*
X139125000Y-97500000D02*
X139125000Y-97175000D01*
X137050000Y-102400000D02*
X136150000Y-101500000D01*
X136150000Y-101500000D02*
X136150000Y-100500000D01*
X144300000Y-102400000D02*
X137050000Y-102400000D01*
X145700000Y-101000000D02*
X144300000Y-102400000D01*
X145700000Y-99050000D02*
X145700000Y-101000000D01*
X146900000Y-97850000D02*
X145700000Y-99050000D01*
X149735000Y-97850000D02*
X146900000Y-97850000D01*
X151260000Y-95325000D02*
X151260000Y-96325000D01*
X151260000Y-96325000D02*
X149735000Y-97850000D01*
X135700000Y-84175000D02*
X135700000Y-85350000D01*
X134100000Y-84175000D02*
X134100000Y-85350000D01*
X135700000Y-84175000D02*
X135700000Y-87370000D01*
X135700000Y-87370000D02*
X136305000Y-87975000D01*
X151260000Y-88500000D02*
X151260000Y-85725000D01*
X151260000Y-85725000D02*
X151235000Y-85700000D01*
X151260000Y-91700000D02*
X151260000Y-90700000D01*
X151260000Y-90700000D02*
X151260000Y-88500000D01*
X151260000Y-95325000D02*
X151260000Y-94325000D01*
X151260000Y-94325000D02*
X151260000Y-91700000D01*
X136305000Y-87710000D02*
X136305000Y-87975000D01*
X138100000Y-84175000D02*
X138100000Y-87155000D01*
X138100000Y-87155000D02*
X138820000Y-87875000D01*
X135960000Y-93175000D02*
X135960000Y-88320000D01*
X135960000Y-88320000D02*
X136305000Y-87975000D01*
X136305000Y-87975000D02*
X138720000Y-87975000D01*
X138720000Y-87975000D02*
X138820000Y-87875000D01*
X136500000Y-97450000D02*
X137280000Y-98230000D01*
X137280000Y-98230000D02*
X137945000Y-98230000D01*
X137945000Y-98230000D02*
X138395000Y-98230000D01*
X136500000Y-97450000D02*
X135935000Y-96925000D01*
X135935000Y-96925000D02*
X135935000Y-95925000D01*
X135965000Y-100835000D02*
X136150000Y-100650000D01*
X136150000Y-100650000D02*
X136150000Y-100500000D01*
X134100000Y-100835000D02*
X135965000Y-100835000D01*
X138950000Y-98250000D02*
X139125000Y-98075000D01*
X139125000Y-98075000D02*
X139125000Y-97500000D01*
X138465000Y-98250000D02*
X138950000Y-98250000D01*
X138395000Y-98230000D02*
X138445000Y-98230000D01*
X138445000Y-98230000D02*
X138465000Y-98250000D01*
X135960000Y-93175000D02*
X135960000Y-95900000D01*
X135960000Y-95900000D02*
X135935000Y-95925000D01*
X129282619Y-101077500D02*
X133857500Y-101077500D01*
X133857500Y-101077500D02*
X134100000Y-100835000D01*
X141065000Y-98015000D02*
X141280000Y-98230000D01*
X141280000Y-98230000D02*
X141795000Y-98230000D01*
X141065000Y-97500000D02*
X141065000Y-98015000D01*
X141795000Y-100805000D02*
X141795000Y-100170000D01*
X141700000Y-100900000D02*
X141795000Y-100805000D01*
X141065000Y-100900000D02*
X141700000Y-100900000D01*
X142400000Y-98850000D02*
X142400000Y-99500000D01*
X142400000Y-98385000D02*
X142400000Y-98850000D01*
X141795000Y-98880000D02*
X142245000Y-98880000D01*
X142245000Y-98880000D02*
X142275000Y-98850000D01*
X142275000Y-98850000D02*
X142400000Y-98850000D01*
X142400000Y-99500000D02*
X142400000Y-100070000D01*
X142245000Y-99520000D02*
X142265000Y-99500000D01*
X141795000Y-99520000D02*
X142245000Y-99520000D01*
X142265000Y-99500000D02*
X142400000Y-99500000D01*
X141795000Y-100170000D02*
X142300000Y-100170000D01*
X142300000Y-100170000D02*
X143130000Y-100170000D01*
X142400000Y-100070000D02*
X142300000Y-100170000D01*
X141795000Y-98230000D02*
X142245000Y-98230000D01*
X142245000Y-98230000D02*
X142400000Y-98385000D01*
X143130000Y-100170000D02*
X143350000Y-99950000D01*
X131437500Y-98537500D02*
X131825000Y-98925000D01*
X131825000Y-98925000D02*
X134100000Y-98925000D01*
X129282619Y-98537500D02*
X131437500Y-98537500D01*
X132540912Y-85855912D02*
X132540912Y-85399991D01*
X134395000Y-87710000D02*
X132540912Y-85855912D01*
X134395000Y-87975000D02*
X134395000Y-87710000D01*
X134900000Y-84175000D02*
X134900000Y-87470000D01*
X134900000Y-87470000D02*
X134395000Y-87975000D01*
X136500000Y-84850000D02*
X137050000Y-85400000D01*
X136500000Y-84175000D02*
X136500000Y-84850000D01*
X137300000Y-84175000D02*
X136500000Y-84175000D01*
X136500000Y-82175000D02*
X136500000Y-84175000D01*
X134900000Y-84175000D02*
X134900000Y-83410002D01*
X134900000Y-83410002D02*
X135700000Y-82610002D01*
X135700000Y-82610002D02*
X135700000Y-82175000D01*
X135700000Y-82175000D02*
X135700000Y-81700000D01*
X135700000Y-81700000D02*
X136400000Y-81000000D01*
X135700000Y-82175000D02*
X136500000Y-82175000D01*
X133712500Y-98537500D02*
X134100000Y-98925000D01*
X138890000Y-93175000D02*
X138890000Y-94175000D01*
X138890000Y-94175000D02*
X140415000Y-95700000D01*
X140415000Y-95700000D02*
X140415000Y-97050000D01*
X140415000Y-97050000D02*
X140415000Y-97500000D01*
X133050011Y-88465696D02*
X133050011Y-87563600D01*
X133050011Y-87563600D02*
X131172407Y-85685996D01*
X131172407Y-85685996D02*
X131172407Y-83488092D01*
X131172407Y-83488092D02*
X131172407Y-82922407D01*
X134484315Y-89900000D02*
X133050011Y-88465696D01*
X135050000Y-89900000D02*
X134484315Y-89900000D01*
X134100000Y-83175000D02*
X133950000Y-83175000D01*
X138845000Y-98880000D02*
X139270000Y-98880000D01*
X139270000Y-98880000D02*
X139800000Y-98350000D01*
X138875000Y-98850000D02*
X138845000Y-98880000D01*
X138845000Y-98880000D02*
X138395000Y-98880000D01*
X141500000Y-96450000D02*
X145700000Y-92250000D01*
X145700000Y-92250000D02*
X145700000Y-91700000D01*
X134100000Y-83175000D02*
X131425000Y-83175000D01*
X131425000Y-83175000D02*
X131172407Y-82922407D01*
X143800000Y-85200000D02*
X145500000Y-85200000D01*
X145500000Y-85200000D02*
X145600000Y-85300000D01*
X143800000Y-84634315D02*
X139440683Y-80274998D01*
X139440683Y-80274998D02*
X134525002Y-80274998D01*
X134525002Y-80274998D02*
X134100000Y-80700000D01*
X134100000Y-80700000D02*
X134100000Y-81525000D01*
X134100000Y-81525000D02*
X134100000Y-82175000D01*
X143800000Y-85200000D02*
X143800000Y-84634315D01*
X142550000Y-96673002D02*
X142550000Y-96550000D01*
X142550000Y-96550000D02*
X144100000Y-95000000D01*
X138395000Y-99520000D02*
X139070000Y-99520000D01*
X139070000Y-99520000D02*
X139300000Y-99750000D01*
X129282619Y-83297500D02*
X130405119Y-82175000D01*
X130405119Y-82175000D02*
X134100000Y-82175000D01*
X132600000Y-87750000D02*
X130687500Y-85837500D01*
X130687500Y-85837500D02*
X129282619Y-85837500D01*
X132600000Y-88900000D02*
X132600000Y-87750000D01*
X134950000Y-91250000D02*
X132600000Y-88900000D01*
X129537500Y-85837500D02*
X129282619Y-85837500D01*
X138395000Y-100170000D02*
X138165822Y-100170000D01*
X138165822Y-100170000D02*
X137407817Y-99411995D01*
X137407817Y-99411995D02*
X137407817Y-98955000D01*
X138580000Y-100170000D02*
X138395000Y-100170000D01*
X134900000Y-81225000D02*
X134900000Y-82175000D01*
X135900000Y-98050000D02*
X135150000Y-97300000D01*
X138259412Y-100900000D02*
X135900000Y-98540588D01*
X135900000Y-98540588D02*
X135900000Y-98050000D01*
X139125000Y-100900000D02*
X138259412Y-100900000D01*
X135150000Y-97300000D02*
X133579998Y-97300000D01*
X133579998Y-97300000D02*
X132675001Y-96395003D01*
X132675001Y-96395003D02*
X132675001Y-95225001D01*
X132675001Y-95225001D02*
X130900000Y-93450000D01*
X130900000Y-93450000D02*
X130900000Y-89994881D01*
X130900000Y-89994881D02*
X130457620Y-89552501D01*
X129282619Y-88377500D02*
X130457620Y-89552501D01*
X138100000Y-83175000D02*
X138250000Y-83175000D01*
X138250000Y-83175000D02*
X140061439Y-84986439D01*
X140061439Y-84986439D02*
X140061439Y-85300898D01*
X141246391Y-101674990D02*
X140680706Y-101674990D01*
X145100000Y-95875000D02*
X145100000Y-100750000D01*
X145100000Y-100750000D02*
X144175010Y-101674990D01*
X144175010Y-101674990D02*
X141246391Y-101674990D01*
X140415000Y-101409284D02*
X140680706Y-101674990D01*
X140415000Y-100900000D02*
X140415000Y-101409284D01*
X145675000Y-95300000D02*
X145100000Y-95875000D01*
X139400000Y-82200000D02*
X138125000Y-82200000D01*
X138125000Y-82200000D02*
X138100000Y-82175000D01*
X129282619Y-93457500D02*
X131725119Y-95900000D01*
X131725119Y-95900000D02*
X131950000Y-95900000D01*
X137300000Y-81525000D02*
X137300000Y-82175000D01*
X145650000Y-88700000D02*
X140125001Y-83175001D01*
X140125001Y-83175001D02*
X140125001Y-81851999D01*
X140125001Y-81851999D02*
X139223012Y-80950010D01*
X139223012Y-80950010D02*
X137874990Y-80950010D01*
X137874990Y-80950010D02*
X137300000Y-81525000D01*
X144100000Y-92234315D02*
X144100000Y-89950000D01*
X144100000Y-89950000D02*
X145550000Y-88500000D01*
X142450000Y-94450000D02*
X142450000Y-93884315D01*
X142450000Y-93884315D02*
X144100000Y-92234315D01*
X139775000Y-100900000D02*
X139775000Y-100450000D01*
X139775000Y-100450000D02*
X140275000Y-99950000D01*
X140275000Y-99950000D02*
X140750000Y-99950000D01*
X139650000Y-101700000D02*
X139775000Y-101575000D01*
X139775000Y-101575000D02*
X139775000Y-100900000D01*
X137000000Y-101400000D02*
X137300000Y-101700000D01*
X137300000Y-101700000D02*
X139650000Y-101700000D01*
X137000000Y-100276998D02*
X137000000Y-101400000D01*
X135450000Y-99600000D02*
X135624999Y-99774999D01*
X135624999Y-99774999D02*
X136498001Y-99774999D01*
X136498001Y-99774999D02*
X137000000Y-100276998D01*
X135450000Y-98454998D02*
X135450000Y-99600000D01*
X132387200Y-97900000D02*
X134895002Y-97900000D01*
X134895002Y-97900000D02*
X135450000Y-98454998D01*
X129282619Y-95997500D02*
X130484700Y-95997500D01*
X130484700Y-95997500D02*
X132387200Y-97900000D01*
X147000000Y-91700000D02*
X149350000Y-91700000D01*
X146650000Y-85300000D02*
X149325000Y-85300000D01*
X149300000Y-85725000D02*
X149325000Y-85700000D01*
X146975000Y-95300000D02*
X149325000Y-95300000D01*
X149325000Y-95300000D02*
X149350000Y-95325000D01*
X146600000Y-88500000D02*
X149350000Y-88500000D01*
D24*
G36*
X144340001Y-100435197D02*
X143860208Y-100914990D01*
X142217902Y-100914990D01*
X142354698Y-100858327D01*
X142533327Y-100679699D01*
X142630000Y-100446310D01*
X142630000Y-100403750D01*
X142471250Y-100245000D01*
X142277000Y-100245000D01*
X142277000Y-100240511D01*
X142354698Y-100208327D01*
X142468026Y-100095000D01*
X142471250Y-100095000D01*
X142630000Y-99936250D01*
X142630000Y-99893690D01*
X142609832Y-99845000D01*
X142630000Y-99796310D01*
X142630000Y-99753750D01*
X142471250Y-99595000D01*
X142468026Y-99595000D01*
X142398025Y-99525000D01*
X142533327Y-99389699D01*
X142538118Y-99378132D01*
X142630000Y-99286250D01*
X142630000Y-99243690D01*
X142611903Y-99200000D01*
X142630000Y-99156310D01*
X142630000Y-99113750D01*
X142538118Y-99021868D01*
X142533327Y-99010301D01*
X142398025Y-98875000D01*
X142468026Y-98805000D01*
X142471250Y-98805000D01*
X142630000Y-98646250D01*
X142630000Y-98603690D01*
X142609832Y-98555000D01*
X142630000Y-98506310D01*
X142630000Y-98463750D01*
X142471250Y-98305000D01*
X142468026Y-98305000D01*
X142354698Y-98191673D01*
X142277000Y-98159489D01*
X142277000Y-98155000D01*
X142471250Y-98155000D01*
X142630000Y-97996250D01*
X142630000Y-97953690D01*
X142533327Y-97720301D01*
X142521028Y-97708002D01*
X142755874Y-97708002D01*
X143136280Y-97550433D01*
X143427431Y-97259282D01*
X143585000Y-96878876D01*
X143585000Y-96589801D01*
X144139802Y-96035000D01*
X144305874Y-96035000D01*
X144340000Y-96020865D01*
X144340001Y-100435197D01*
X144340001Y-100435197D01*
G37*
X144340001Y-100435197D02*
X143860208Y-100914990D01*
X142217902Y-100914990D01*
X142354698Y-100858327D01*
X142533327Y-100679699D01*
X142630000Y-100446310D01*
X142630000Y-100403750D01*
X142471250Y-100245000D01*
X142277000Y-100245000D01*
X142277000Y-100240511D01*
X142354698Y-100208327D01*
X142468026Y-100095000D01*
X142471250Y-100095000D01*
X142630000Y-99936250D01*
X142630000Y-99893690D01*
X142609832Y-99845000D01*
X142630000Y-99796310D01*
X142630000Y-99753750D01*
X142471250Y-99595000D01*
X142468026Y-99595000D01*
X142398025Y-99525000D01*
X142533327Y-99389699D01*
X142538118Y-99378132D01*
X142630000Y-99286250D01*
X142630000Y-99243690D01*
X142611903Y-99200000D01*
X142630000Y-99156310D01*
X142630000Y-99113750D01*
X142538118Y-99021868D01*
X142533327Y-99010301D01*
X142398025Y-98875000D01*
X142468026Y-98805000D01*
X142471250Y-98805000D01*
X142630000Y-98646250D01*
X142630000Y-98603690D01*
X142609832Y-98555000D01*
X142630000Y-98506310D01*
X142630000Y-98463750D01*
X142471250Y-98305000D01*
X142468026Y-98305000D01*
X142354698Y-98191673D01*
X142277000Y-98159489D01*
X142277000Y-98155000D01*
X142471250Y-98155000D01*
X142630000Y-97996250D01*
X142630000Y-97953690D01*
X142533327Y-97720301D01*
X142521028Y-97708002D01*
X142755874Y-97708002D01*
X143136280Y-97550433D01*
X143427431Y-97259282D01*
X143585000Y-96878876D01*
X143585000Y-96589801D01*
X144139802Y-96035000D01*
X144305874Y-96035000D01*
X144340000Y-96020865D01*
X144340001Y-100435197D01*
G36*
X131796873Y-98384476D02*
X131839271Y-98447929D01*
X131902724Y-98490327D01*
X131902726Y-98490329D01*
X131986848Y-98546537D01*
X132090663Y-98615904D01*
X132312348Y-98660000D01*
X132312352Y-98660000D01*
X132387199Y-98674888D01*
X132462046Y-98660000D01*
X132735750Y-98660000D01*
X132873750Y-98798000D01*
X133973000Y-98798000D01*
X133973000Y-98778000D01*
X134227000Y-98778000D01*
X134227000Y-98798000D01*
X134247000Y-98798000D01*
X134247000Y-99052000D01*
X134227000Y-99052000D01*
X134227000Y-99072000D01*
X133973000Y-99072000D01*
X133973000Y-99052000D01*
X132873750Y-99052000D01*
X132715000Y-99210750D01*
X132715000Y-99536309D01*
X132811673Y-99769698D01*
X132917353Y-99875378D01*
X132892191Y-99892191D01*
X132751843Y-100102235D01*
X132709025Y-100317500D01*
X130560797Y-100317500D01*
X130353244Y-100006875D01*
X130034141Y-99793657D01*
X130163977Y-99732683D01*
X130554264Y-99304424D01*
X130724095Y-98894390D01*
X130602774Y-98664500D01*
X129427000Y-98664500D01*
X129427000Y-98410500D01*
X130602774Y-98410500D01*
X130724095Y-98180610D01*
X130554264Y-97770576D01*
X130163977Y-97342317D01*
X130034141Y-97281343D01*
X130353244Y-97068125D01*
X130404225Y-96991827D01*
X131796873Y-98384476D01*
X131796873Y-98384476D01*
G37*
X131796873Y-98384476D02*
X131839271Y-98447929D01*
X131902724Y-98490327D01*
X131902726Y-98490329D01*
X131986848Y-98546537D01*
X132090663Y-98615904D01*
X132312348Y-98660000D01*
X132312352Y-98660000D01*
X132387199Y-98674888D01*
X132462046Y-98660000D01*
X132735750Y-98660000D01*
X132873750Y-98798000D01*
X133973000Y-98798000D01*
X133973000Y-98778000D01*
X134227000Y-98778000D01*
X134227000Y-98798000D01*
X134247000Y-98798000D01*
X134247000Y-99052000D01*
X134227000Y-99052000D01*
X134227000Y-99072000D01*
X133973000Y-99072000D01*
X133973000Y-99052000D01*
X132873750Y-99052000D01*
X132715000Y-99210750D01*
X132715000Y-99536309D01*
X132811673Y-99769698D01*
X132917353Y-99875378D01*
X132892191Y-99892191D01*
X132751843Y-100102235D01*
X132709025Y-100317500D01*
X130560797Y-100317500D01*
X130353244Y-100006875D01*
X130034141Y-99793657D01*
X130163977Y-99732683D01*
X130554264Y-99304424D01*
X130724095Y-98894390D01*
X130602774Y-98664500D01*
X129427000Y-98664500D01*
X129427000Y-98410500D01*
X130602774Y-98410500D01*
X130724095Y-98180610D01*
X130554264Y-97770576D01*
X130163977Y-97342317D01*
X130034141Y-97281343D01*
X130353244Y-97068125D01*
X130404225Y-96991827D01*
X131796873Y-98384476D01*
G36*
X139046585Y-85046387D02*
X139026439Y-85095024D01*
X139026439Y-85506772D01*
X139184008Y-85887178D01*
X139475159Y-86178329D01*
X139855565Y-86335898D01*
X140267313Y-86335898D01*
X140647719Y-86178329D01*
X140938870Y-85887178D01*
X141096439Y-85506772D01*
X141096439Y-85221240D01*
X144402559Y-88527361D01*
X144402559Y-88572639D01*
X143615528Y-89359671D01*
X143552072Y-89402071D01*
X143509672Y-89465527D01*
X143509671Y-89465528D01*
X143384097Y-89653463D01*
X143325112Y-89950000D01*
X143340001Y-90024852D01*
X143340000Y-91919512D01*
X141965528Y-93293986D01*
X141902072Y-93336386D01*
X141859440Y-93400190D01*
X141761250Y-93302000D01*
X140927000Y-93302000D01*
X140927000Y-94401250D01*
X141085750Y-94560000D01*
X141411309Y-94560000D01*
X141415000Y-94558471D01*
X141415000Y-94655874D01*
X141572569Y-95036280D01*
X141705744Y-95169455D01*
X141460199Y-95415000D01*
X141294126Y-95415000D01*
X141145449Y-95476584D01*
X141130904Y-95403463D01*
X141130904Y-95403462D01*
X141005329Y-95215527D01*
X140962929Y-95152071D01*
X140899473Y-95109671D01*
X140349802Y-94560000D01*
X140514250Y-94560000D01*
X140673000Y-94401250D01*
X140673000Y-93302000D01*
X140653000Y-93302000D01*
X140653000Y-93048000D01*
X140673000Y-93048000D01*
X140673000Y-91948750D01*
X140927000Y-91948750D01*
X140927000Y-93048000D01*
X141761250Y-93048000D01*
X141920000Y-92889250D01*
X141920000Y-92298690D01*
X141823327Y-92065301D01*
X141644698Y-91886673D01*
X141411309Y-91790000D01*
X141085750Y-91790000D01*
X140927000Y-91948750D01*
X140673000Y-91948750D01*
X140514250Y-91790000D01*
X140188691Y-91790000D01*
X139955302Y-91886673D01*
X139849622Y-91992353D01*
X139832809Y-91967191D01*
X139622765Y-91826843D01*
X139375000Y-91777560D01*
X138405000Y-91777560D01*
X138157235Y-91826843D01*
X137947191Y-91967191D01*
X137806843Y-92177235D01*
X137757560Y-92425000D01*
X137757560Y-93925000D01*
X137806843Y-94172765D01*
X137947191Y-94382809D01*
X138157235Y-94523157D01*
X138216460Y-94534937D01*
X138299492Y-94659203D01*
X138342072Y-94722929D01*
X138405528Y-94765329D01*
X139655000Y-96014802D01*
X139655000Y-96284063D01*
X139625153Y-96290000D01*
X139324848Y-96290000D01*
X139250000Y-96275112D01*
X139175152Y-96290000D01*
X139175148Y-96290000D01*
X138953463Y-96334096D01*
X138702071Y-96502071D01*
X138659669Y-96565530D01*
X138640530Y-96584669D01*
X138577071Y-96627071D01*
X138409096Y-96878463D01*
X138365000Y-97100148D01*
X138365000Y-97100153D01*
X138350112Y-97175000D01*
X138351268Y-97180811D01*
X138327560Y-97300000D01*
X138327560Y-97432560D01*
X138195000Y-97432560D01*
X138006774Y-97470000D01*
X137594802Y-97470000D01*
X137535000Y-97410198D01*
X137535000Y-97244126D01*
X137377431Y-96863720D01*
X137086280Y-96572569D01*
X137067440Y-96564765D01*
X137067440Y-95175000D01*
X137018157Y-94927235D01*
X136877809Y-94717191D01*
X136720000Y-94611746D01*
X136720000Y-94504959D01*
X136902809Y-94382809D01*
X137043157Y-94172765D01*
X137092440Y-93925000D01*
X137092440Y-92425000D01*
X137043157Y-92177235D01*
X136902809Y-91967191D01*
X136720000Y-91845041D01*
X136720000Y-89372440D01*
X136790000Y-89372440D01*
X137037765Y-89323157D01*
X137247809Y-89182809D01*
X137388157Y-88972765D01*
X137435451Y-88735000D01*
X137709440Y-88735000D01*
X137736843Y-88872765D01*
X137877191Y-89082809D01*
X138087235Y-89223157D01*
X138335000Y-89272440D01*
X139305000Y-89272440D01*
X139552765Y-89223157D01*
X139762809Y-89082809D01*
X139779622Y-89057647D01*
X139885302Y-89163327D01*
X140118691Y-89260000D01*
X140444250Y-89260000D01*
X140603000Y-89101250D01*
X140603000Y-88002000D01*
X140857000Y-88002000D01*
X140857000Y-89101250D01*
X141015750Y-89260000D01*
X141341309Y-89260000D01*
X141574698Y-89163327D01*
X141753327Y-88984699D01*
X141850000Y-88751310D01*
X141850000Y-88160750D01*
X141691250Y-88002000D01*
X140857000Y-88002000D01*
X140603000Y-88002000D01*
X140583000Y-88002000D01*
X140583000Y-87748000D01*
X140603000Y-87748000D01*
X140603000Y-86648750D01*
X140857000Y-86648750D01*
X140857000Y-87748000D01*
X141691250Y-87748000D01*
X141850000Y-87589250D01*
X141850000Y-86998690D01*
X141753327Y-86765301D01*
X141574698Y-86586673D01*
X141341309Y-86490000D01*
X141015750Y-86490000D01*
X140857000Y-86648750D01*
X140603000Y-86648750D01*
X140444250Y-86490000D01*
X140118691Y-86490000D01*
X139885302Y-86586673D01*
X139779622Y-86692353D01*
X139762809Y-86667191D01*
X139552765Y-86526843D01*
X139305000Y-86477560D01*
X138860000Y-86477560D01*
X138860000Y-84954700D01*
X138898011Y-84897813D01*
X139046585Y-85046387D01*
X139046585Y-85046387D01*
G37*
X139046585Y-85046387D02*
X139026439Y-85095024D01*
X139026439Y-85506772D01*
X139184008Y-85887178D01*
X139475159Y-86178329D01*
X139855565Y-86335898D01*
X140267313Y-86335898D01*
X140647719Y-86178329D01*
X140938870Y-85887178D01*
X141096439Y-85506772D01*
X141096439Y-85221240D01*
X144402559Y-88527361D01*
X144402559Y-88572639D01*
X143615528Y-89359671D01*
X143552072Y-89402071D01*
X143509672Y-89465527D01*
X143509671Y-89465528D01*
X143384097Y-89653463D01*
X143325112Y-89950000D01*
X143340001Y-90024852D01*
X143340000Y-91919512D01*
X141965528Y-93293986D01*
X141902072Y-93336386D01*
X141859440Y-93400190D01*
X141761250Y-93302000D01*
X140927000Y-93302000D01*
X140927000Y-94401250D01*
X141085750Y-94560000D01*
X141411309Y-94560000D01*
X141415000Y-94558471D01*
X141415000Y-94655874D01*
X141572569Y-95036280D01*
X141705744Y-95169455D01*
X141460199Y-95415000D01*
X141294126Y-95415000D01*
X141145449Y-95476584D01*
X141130904Y-95403463D01*
X141130904Y-95403462D01*
X141005329Y-95215527D01*
X140962929Y-95152071D01*
X140899473Y-95109671D01*
X140349802Y-94560000D01*
X140514250Y-94560000D01*
X140673000Y-94401250D01*
X140673000Y-93302000D01*
X140653000Y-93302000D01*
X140653000Y-93048000D01*
X140673000Y-93048000D01*
X140673000Y-91948750D01*
X140927000Y-91948750D01*
X140927000Y-93048000D01*
X141761250Y-93048000D01*
X141920000Y-92889250D01*
X141920000Y-92298690D01*
X141823327Y-92065301D01*
X141644698Y-91886673D01*
X141411309Y-91790000D01*
X141085750Y-91790000D01*
X140927000Y-91948750D01*
X140673000Y-91948750D01*
X140514250Y-91790000D01*
X140188691Y-91790000D01*
X139955302Y-91886673D01*
X139849622Y-91992353D01*
X139832809Y-91967191D01*
X139622765Y-91826843D01*
X139375000Y-91777560D01*
X138405000Y-91777560D01*
X138157235Y-91826843D01*
X137947191Y-91967191D01*
X137806843Y-92177235D01*
X137757560Y-92425000D01*
X137757560Y-93925000D01*
X137806843Y-94172765D01*
X137947191Y-94382809D01*
X138157235Y-94523157D01*
X138216460Y-94534937D01*
X138299492Y-94659203D01*
X138342072Y-94722929D01*
X138405528Y-94765329D01*
X139655000Y-96014802D01*
X139655000Y-96284063D01*
X139625153Y-96290000D01*
X139324848Y-96290000D01*
X139250000Y-96275112D01*
X139175152Y-96290000D01*
X139175148Y-96290000D01*
X138953463Y-96334096D01*
X138702071Y-96502071D01*
X138659669Y-96565530D01*
X138640530Y-96584669D01*
X138577071Y-96627071D01*
X138409096Y-96878463D01*
X138365000Y-97100148D01*
X138365000Y-97100153D01*
X138350112Y-97175000D01*
X138351268Y-97180811D01*
X138327560Y-97300000D01*
X138327560Y-97432560D01*
X138195000Y-97432560D01*
X138006774Y-97470000D01*
X137594802Y-97470000D01*
X137535000Y-97410198D01*
X137535000Y-97244126D01*
X137377431Y-96863720D01*
X137086280Y-96572569D01*
X137067440Y-96564765D01*
X137067440Y-95175000D01*
X137018157Y-94927235D01*
X136877809Y-94717191D01*
X136720000Y-94611746D01*
X136720000Y-94504959D01*
X136902809Y-94382809D01*
X137043157Y-94172765D01*
X137092440Y-93925000D01*
X137092440Y-92425000D01*
X137043157Y-92177235D01*
X136902809Y-91967191D01*
X136720000Y-91845041D01*
X136720000Y-89372440D01*
X136790000Y-89372440D01*
X137037765Y-89323157D01*
X137247809Y-89182809D01*
X137388157Y-88972765D01*
X137435451Y-88735000D01*
X137709440Y-88735000D01*
X137736843Y-88872765D01*
X137877191Y-89082809D01*
X138087235Y-89223157D01*
X138335000Y-89272440D01*
X139305000Y-89272440D01*
X139552765Y-89223157D01*
X139762809Y-89082809D01*
X139779622Y-89057647D01*
X139885302Y-89163327D01*
X140118691Y-89260000D01*
X140444250Y-89260000D01*
X140603000Y-89101250D01*
X140603000Y-88002000D01*
X140857000Y-88002000D01*
X140857000Y-89101250D01*
X141015750Y-89260000D01*
X141341309Y-89260000D01*
X141574698Y-89163327D01*
X141753327Y-88984699D01*
X141850000Y-88751310D01*
X141850000Y-88160750D01*
X141691250Y-88002000D01*
X140857000Y-88002000D01*
X140603000Y-88002000D01*
X140583000Y-88002000D01*
X140583000Y-87748000D01*
X140603000Y-87748000D01*
X140603000Y-86648750D01*
X140857000Y-86648750D01*
X140857000Y-87748000D01*
X141691250Y-87748000D01*
X141850000Y-87589250D01*
X141850000Y-86998690D01*
X141753327Y-86765301D01*
X141574698Y-86586673D01*
X141341309Y-86490000D01*
X141015750Y-86490000D01*
X140857000Y-86648750D01*
X140603000Y-86648750D01*
X140444250Y-86490000D01*
X140118691Y-86490000D01*
X139885302Y-86586673D01*
X139779622Y-86692353D01*
X139762809Y-86667191D01*
X139552765Y-86526843D01*
X139305000Y-86477560D01*
X138860000Y-86477560D01*
X138860000Y-84954700D01*
X138898011Y-84897813D01*
X139046585Y-85046387D01*
G36*
X131840001Y-88064803D02*
X131840000Y-88825153D01*
X131825112Y-88900000D01*
X131840000Y-88974847D01*
X131840000Y-88974851D01*
X131884096Y-89196536D01*
X132052071Y-89447929D01*
X132115530Y-89490331D01*
X133915000Y-91289802D01*
X133915000Y-91455874D01*
X134072569Y-91836280D01*
X134181020Y-91944731D01*
X134177000Y-91948750D01*
X134177000Y-93048000D01*
X134197000Y-93048000D01*
X134197000Y-93302000D01*
X134177000Y-93302000D01*
X134177000Y-94401250D01*
X134315750Y-94540000D01*
X134310750Y-94540000D01*
X134152000Y-94698750D01*
X134152000Y-95798000D01*
X134172000Y-95798000D01*
X134172000Y-96052000D01*
X134152000Y-96052000D01*
X134152000Y-96072000D01*
X133898000Y-96072000D01*
X133898000Y-96052000D01*
X133878000Y-96052000D01*
X133878000Y-95798000D01*
X133898000Y-95798000D01*
X133898000Y-94698750D01*
X133759250Y-94560000D01*
X133764250Y-94560000D01*
X133923000Y-94401250D01*
X133923000Y-93302000D01*
X133088750Y-93302000D01*
X132930000Y-93460750D01*
X132930000Y-94051310D01*
X133026673Y-94284699D01*
X133205302Y-94463327D01*
X133402049Y-94544822D01*
X133180302Y-94636673D01*
X133173159Y-94643816D01*
X133159477Y-94634674D01*
X131660000Y-93135199D01*
X131660000Y-92298690D01*
X132930000Y-92298690D01*
X132930000Y-92889250D01*
X133088750Y-93048000D01*
X133923000Y-93048000D01*
X133923000Y-91948750D01*
X133764250Y-91790000D01*
X133438691Y-91790000D01*
X133205302Y-91886673D01*
X133026673Y-92065301D01*
X132930000Y-92298690D01*
X131660000Y-92298690D01*
X131660000Y-90069729D01*
X131674888Y-89994881D01*
X131660000Y-89920033D01*
X131660000Y-89920029D01*
X131615904Y-89698344D01*
X131615904Y-89698343D01*
X131524376Y-89561363D01*
X131447929Y-89446952D01*
X131384470Y-89404550D01*
X131047953Y-89068033D01*
X131047949Y-89068027D01*
X130723828Y-88743907D01*
X130796711Y-88377500D01*
X130681458Y-87798082D01*
X130353244Y-87306875D01*
X130054858Y-87107500D01*
X130353244Y-86908125D01*
X130485455Y-86710257D01*
X131840001Y-88064803D01*
X131840001Y-88064803D01*
G37*
X131840001Y-88064803D02*
X131840000Y-88825153D01*
X131825112Y-88900000D01*
X131840000Y-88974847D01*
X131840000Y-88974851D01*
X131884096Y-89196536D01*
X132052071Y-89447929D01*
X132115530Y-89490331D01*
X133915000Y-91289802D01*
X133915000Y-91455874D01*
X134072569Y-91836280D01*
X134181020Y-91944731D01*
X134177000Y-91948750D01*
X134177000Y-93048000D01*
X134197000Y-93048000D01*
X134197000Y-93302000D01*
X134177000Y-93302000D01*
X134177000Y-94401250D01*
X134315750Y-94540000D01*
X134310750Y-94540000D01*
X134152000Y-94698750D01*
X134152000Y-95798000D01*
X134172000Y-95798000D01*
X134172000Y-96052000D01*
X134152000Y-96052000D01*
X134152000Y-96072000D01*
X133898000Y-96072000D01*
X133898000Y-96052000D01*
X133878000Y-96052000D01*
X133878000Y-95798000D01*
X133898000Y-95798000D01*
X133898000Y-94698750D01*
X133759250Y-94560000D01*
X133764250Y-94560000D01*
X133923000Y-94401250D01*
X133923000Y-93302000D01*
X133088750Y-93302000D01*
X132930000Y-93460750D01*
X132930000Y-94051310D01*
X133026673Y-94284699D01*
X133205302Y-94463327D01*
X133402049Y-94544822D01*
X133180302Y-94636673D01*
X133173159Y-94643816D01*
X133159477Y-94634674D01*
X131660000Y-93135199D01*
X131660000Y-92298690D01*
X132930000Y-92298690D01*
X132930000Y-92889250D01*
X133088750Y-93048000D01*
X133923000Y-93048000D01*
X133923000Y-91948750D01*
X133764250Y-91790000D01*
X133438691Y-91790000D01*
X133205302Y-91886673D01*
X133026673Y-92065301D01*
X132930000Y-92298690D01*
X131660000Y-92298690D01*
X131660000Y-90069729D01*
X131674888Y-89994881D01*
X131660000Y-89920033D01*
X131660000Y-89920029D01*
X131615904Y-89698344D01*
X131615904Y-89698343D01*
X131524376Y-89561363D01*
X131447929Y-89446952D01*
X131384470Y-89404550D01*
X131047953Y-89068033D01*
X131047949Y-89068027D01*
X130723828Y-88743907D01*
X130796711Y-88377500D01*
X130681458Y-87798082D01*
X130353244Y-87306875D01*
X130054858Y-87107500D01*
X130353244Y-86908125D01*
X130485455Y-86710257D01*
X131840001Y-88064803D01*
G36*
X133202560Y-84575000D02*
X133237190Y-84749099D01*
X133222569Y-84763720D01*
X133065000Y-85144126D01*
X133065000Y-85555874D01*
X133222569Y-85936280D01*
X133513720Y-86227431D01*
X133894126Y-86385000D01*
X134305874Y-86385000D01*
X134686280Y-86227431D01*
X134900000Y-86013711D01*
X134940001Y-86053712D01*
X134940001Y-86590000D01*
X134680750Y-86590000D01*
X134522000Y-86748750D01*
X134522000Y-87848000D01*
X134542000Y-87848000D01*
X134542000Y-88102000D01*
X134522000Y-88102000D01*
X134522000Y-88122000D01*
X134268000Y-88122000D01*
X134268000Y-88102000D01*
X134248000Y-88102000D01*
X134248000Y-87848000D01*
X134268000Y-87848000D01*
X134268000Y-86748750D01*
X134109250Y-86590000D01*
X133783691Y-86590000D01*
X133550302Y-86686673D01*
X133399094Y-86837881D01*
X131932407Y-85371195D01*
X131932407Y-83935000D01*
X133202560Y-83935000D01*
X133202560Y-84575000D01*
X133202560Y-84575000D01*
G37*
X133202560Y-84575000D02*
X133237190Y-84749099D01*
X133222569Y-84763720D01*
X133065000Y-85144126D01*
X133065000Y-85555874D01*
X133222569Y-85936280D01*
X133513720Y-86227431D01*
X133894126Y-86385000D01*
X134305874Y-86385000D01*
X134686280Y-86227431D01*
X134900000Y-86013711D01*
X134940001Y-86053712D01*
X134940001Y-86590000D01*
X134680750Y-86590000D01*
X134522000Y-86748750D01*
X134522000Y-87848000D01*
X134542000Y-87848000D01*
X134542000Y-88102000D01*
X134522000Y-88102000D01*
X134522000Y-88122000D01*
X134268000Y-88122000D01*
X134268000Y-88102000D01*
X134248000Y-88102000D01*
X134248000Y-87848000D01*
X134268000Y-87848000D01*
X134268000Y-86748750D01*
X134109250Y-86590000D01*
X133783691Y-86590000D01*
X133550302Y-86686673D01*
X133399094Y-86837881D01*
X131932407Y-85371195D01*
X131932407Y-83935000D01*
X133202560Y-83935000D01*
X133202560Y-84575000D01*
G36*
X137340000Y-84954701D02*
X137340001Y-86905165D01*
X137247809Y-86767191D01*
X137037765Y-86626843D01*
X136790000Y-86577560D01*
X136460000Y-86577560D01*
X136460000Y-86053711D01*
X136577431Y-85936280D01*
X136735000Y-85555874D01*
X136735000Y-85161250D01*
X136783750Y-85210000D01*
X136876309Y-85210000D01*
X136900000Y-85200187D01*
X136923691Y-85210000D01*
X137016250Y-85210000D01*
X137175000Y-85051250D01*
X137175000Y-85048025D01*
X137288327Y-84934699D01*
X137302987Y-84899307D01*
X137340000Y-84954701D01*
X137340000Y-84954701D01*
G37*
X137340000Y-84954701D02*
X137340001Y-86905165D01*
X137247809Y-86767191D01*
X137037765Y-86626843D01*
X136790000Y-86577560D01*
X136460000Y-86577560D01*
X136460000Y-86053711D01*
X136577431Y-85936280D01*
X136735000Y-85555874D01*
X136735000Y-85161250D01*
X136783750Y-85210000D01*
X136876309Y-85210000D01*
X136900000Y-85200187D01*
X136923691Y-85210000D01*
X137016250Y-85210000D01*
X137175000Y-85051250D01*
X137175000Y-85048025D01*
X137288327Y-84934699D01*
X137302987Y-84899307D01*
X137340000Y-84954701D01*
M02*
